<?xml version="1.0" encoding="utf-8"?>
<!-- Generator: Adobe Illustrator 27.5.0, SVG Export Plug-In . SVG Version: 6.00 Build 0)  -->
<svg version="1.1" id="Layer_1" xmlns="http://www.w3.org/2000/svg" xmlns:xlink="http://www.w3.org/1999/xlink" x="0px" y="0px"
	 viewBox="0 0 3500 2000" style="enable-background:new 0 0 3500 2000;" xml:space="preserve">
<rect style="fill:#FFFFFF;" width="3500" height="2000"/>
<g>
	<g>
		<path style="fill:#F4F7FD;" d="M2063.801,430.374c-1.797,14.848-2.515,29.637-2.038,44.122
			c1.81,54.962,27.234,120.554,78.831,147.233c64.297,33.245,145.078-1.273,212.593,20.721
			c104.575,34.068,191.51,172.401,310.313,96.338c87.598-56.085,119.364-190.446,100.801-287.135
			c-32.612-169.852-186.508-298.879-358.659-305.262c-110.43-4.094-219.279,36.312-282.866,128.268
			C2092.155,318.942,2070.494,375.065,2063.801,430.374z"/>
		<g>
			<defs>
				<path id="XMLID_41_" d="M416.567,1849.584h2636.551h4.252c80.592-183.695,112.623-388.437,86.355-587.307
					c-13.541-102.517-43.923-207.423-114.877-282.648c-44.975-47.682-103.712-80.541-164.875-104.108
					c-150.039-57.813-320.095-62.067-472.836-11.827c-100.405,33.026-201.505,89.574-305.127,68.734
					c-45.147-9.079-86.118-32.451-124.152-58.413c-203.308-138.775-358.944-365.914-599.485-418.194
					c-155.562-33.81-321.35,16.202-450.839,108.804c-129.489,92.601-226.382,224.227-304.293,363.052
					C449.898,1208.039,369.91,1531.493,416.567,1849.584z"/>
			</defs>
			<use xlink:href="#XMLID_41_"  style="overflow:visible;fill:#F4F7FD;"/>
			<clipPath id="XMLID_00000083774054261288542070000001799858473260650922_">
				<use xlink:href="#XMLID_41_"  style="overflow:visible;"/>
			</clipPath>
			<path style="opacity:0.1;clip-path:url(#XMLID_00000083774054261288542070000001799858473260650922_);fill:#3C94F8;" d="
				M2636.565,1112.036c-133.281,82.454-243.148,196.905-353.767,307.926c-68.283,68.532-140.5,138.193-231.656,170.592
				c-67.639,24.041-141.112,25.738-212.796,21.934c-124.174-6.591-247.501-28.968-366.074-66.424
				c-144.685-45.704-281.909-113.595-428.143-154.068c-215.612-59.674-448.041-57.222-662.346,6.987
				c-6.652,168.465-14.286,337.322-20.938,505.786c187.548,14.433,375.779-5.316,563.543-16.605
				c667.713-40.149,1335.991,26.61,2003.972,3.426c87.096-3.023,176.346-3.578,262.888-14.34c3.083-14.425,1.61-31.226,2.013-46.027
				c0.455-16.697,0.789-33.397,1.004-50.098c0.43-33.403,0.38-66.812-0.148-100.213c-1.056-66.803-4.026-133.576-8.903-200.209
				c-8.095-110.611-21.445-220.838-40.018-330.178c-5.085-29.939-10.808-60.062-21.582-88.558
				c-6.878-18.192-15.667-42.32-36.071-48.904c-18.156-5.858-41.245-4.045-60.133-5.899c-29.266-2.873-58.78-2.968-88.086-0.631
				C2831.684,1015.112,2727.878,1055.545,2636.565,1112.036z"/>
		</g>
	</g>
	<g>
		<g>
			<defs>
				<path id="XMLID_34_" d="M2155.523,1145.154H936.548c-13.21,0-23.918-10.708-23.918-23.918v-807.18
					c0-13.21,10.708-23.918,23.918-23.918h1218.975c13.21,0,23.918,10.708,23.918,23.918v807.18
					C2179.441,1134.446,2168.733,1145.154,2155.523,1145.154z"/>
			</defs>
			<use xlink:href="#XMLID_34_"  style="overflow:visible;fill:#CCE6FF;"/>
			<clipPath id="XMLID_00000098219840562424466870000011611322290209785782_">
				<use xlink:href="#XMLID_34_"  style="overflow:visible;"/>
			</clipPath>
			
				<rect x="850.296" y="241.533" style="clip-path:url(#XMLID_00000098219840562424466870000011611322290209785782_);fill:#102A54;" width="1386.559" height="141.937"/>
		</g>
		<g>
			<circle style="fill:#3C94F8;" cx="979.68" cy="340.767" r="17.328"/>
			<circle style="fill:#FFFFFF;" cx="1042.618" cy="340.767" r="17.328"/>
			<circle style="fill:#FFFFFF;" cx="1105.555" cy="340.767" r="17.328"/>
		</g>
		<path style="fill:#102A54;" d="M2139.127,1136.976H932.703c-17.475,0-31.693-14.218-31.693-31.693V310.653
			c0-17.476,14.217-31.693,31.693-31.693h1206.424c17.476,0,31.693,14.217,31.693,31.693v794.629
			C2170.82,1122.758,2156.603,1136.976,2139.127,1136.976z M932.703,281.96c-15.821,0-28.693,12.872-28.693,28.693v794.629
			c0,15.821,12.872,28.693,28.693,28.693h1206.424c15.821,0,28.693-12.872,28.693-28.693V310.653
			c0-15.821-12.872-28.693-28.693-28.693H932.703z"/>
	</g>
	<g>
		<g>
			<path style="fill:#F4F7FD;" d="M1297.668,1062.39H981.256c-6.806,0-12.323-5.517-12.323-12.323V472.302
				c0-6.806,5.517-12.323,12.323-12.323h316.412c6.806,0,12.323,5.517,12.323,12.323v577.764
				C1309.992,1056.872,1304.474,1062.39,1297.668,1062.39z"/>
			<g>
				<path style="fill:#CCE6FF;" d="M1116.478,656.831H995.194c-3.124,0-5.656-2.532-5.656-5.656V493.37
					c0-3.124,2.532-5.656,5.656-5.656h121.284c3.124,0,5.656,2.532,5.656,5.656v157.806
					C1122.134,654.299,1119.601,656.831,1116.478,656.831z"/>
				<g>
					<circle style="fill:#CCE6FF;" cx="1156.013" cy="498.305" r="10.591"/>
					<path style="fill:#CCE6FF;" d="M1289.645,494.503h-101.656c-1.25,0-2.263-1.013-2.263-2.263l0,0
						c0-1.25,1.013-2.263,2.263-2.263h101.656c1.25,0,2.263,1.013,2.263,2.263l0,0
						C1291.907,493.49,1290.894,494.503,1289.645,494.503z"/>
					<path style="fill:#CCE6FF;" d="M1289.645,506.633h-101.656c-1.25,0-2.263-1.013-2.263-2.263l0,0
						c0-1.25,1.013-2.263,2.263-2.263h101.656c1.25,0,2.263,1.013,2.263,2.263l0,0
						C1291.907,505.62,1290.894,506.633,1289.645,506.633z"/>
					<path style="fill:#CCE6FF;" d="M1289.645,518.764h-101.656c-1.25,0-2.263-1.013-2.263-2.263l0,0
						c0-1.25,1.013-2.263,2.263-2.263h101.656c1.25,0,2.263,1.013,2.263,2.263l0,0
						C1291.907,517.751,1290.894,518.764,1289.645,518.764z"/>
				</g>
				<g>
					
						<ellipse transform="matrix(0.1856 -0.9826 0.9826 0.1856 408.5341 1577.6385)" style="fill:#CCE6FF;" cx="1156.013" cy="542.362" rx="10.591" ry="10.591"/>
					<path style="fill:#CCE6FF;" d="M1289.645,538.56h-101.656c-1.25,0-2.263-1.013-2.263-2.263l0,0c0-1.25,1.013-2.263,2.263-2.263
						h101.656c1.25,0,2.263,1.013,2.263,2.263l0,0C1291.907,537.546,1290.894,538.56,1289.645,538.56z"/>
					<path style="fill:#CCE6FF;" d="M1289.645,550.69h-101.656c-1.25,0-2.263-1.013-2.263-2.263l0,0c0-1.25,1.013-2.263,2.263-2.263
						h101.656c1.25,0,2.263,1.013,2.263,2.263l0,0C1291.907,549.677,1290.894,550.69,1289.645,550.69z"/>
					<path style="fill:#CCE6FF;" d="M1289.645,562.821h-101.656c-1.25,0-2.263-1.013-2.263-2.263l0,0
						c0-1.25,1.013-2.263,2.263-2.263h101.656c1.25,0,2.263,1.013,2.263,2.263l0,0
						C1291.907,561.807,1290.894,562.821,1289.645,562.821z"/>
				</g>
				<g>
					
						<ellipse transform="matrix(0.1856 -0.9826 0.9826 0.1856 365.2428 1613.5189)" style="fill:#CCE6FF;" cx="1156.013" cy="586.419" rx="10.591" ry="10.591"/>
					<path style="fill:#CCE6FF;" d="M1289.645,582.616h-101.656c-1.25,0-2.263-1.013-2.263-2.263l0,0
						c0-1.25,1.013-2.263,2.263-2.263h101.656c1.25,0,2.263,1.013,2.263,2.263l0,0
						C1291.907,581.603,1290.894,582.616,1289.645,582.616z"/>
					<path style="fill:#CCE6FF;" d="M1289.645,594.747h-101.656c-1.25,0-2.263-1.013-2.263-2.263l0,0
						c0-1.25,1.013-2.263,2.263-2.263h101.656c1.25,0,2.263,1.013,2.263,2.263l0,0
						C1291.907,593.734,1290.894,594.747,1289.645,594.747z"/>
					<path style="fill:#CCE6FF;" d="M1289.645,606.877h-101.656c-1.25,0-2.263-1.013-2.263-2.263l0,0
						c0-1.25,1.013-2.263,2.263-2.263h101.656c1.25,0,2.263,1.013,2.263,2.263l0,0
						C1291.907,605.864,1290.894,606.877,1289.645,606.877z"/>
				</g>
				<g>
					
						<ellipse transform="matrix(0.8614 -0.508 0.508 0.8614 -160.0089 674.6496)" style="fill:#CCE6FF;" cx="1156.013" cy="630.475" rx="10.591" ry="10.591"/>
					<path style="fill:#CCE6FF;" d="M1289.645,626.673h-101.656c-1.25,0-2.263-1.013-2.263-2.263l0,0
						c0-1.25,1.013-2.263,2.263-2.263h101.656c1.25,0,2.263,1.013,2.263,2.263l0,0
						C1291.907,625.66,1290.894,626.673,1289.645,626.673z"/>
					<path style="fill:#CCE6FF;" d="M1289.645,638.803h-101.656c-1.25,0-2.263-1.013-2.263-2.263l0,0
						c0-1.25,1.013-2.263,2.263-2.263h101.656c1.25,0,2.263,1.013,2.263,2.263l0,0
						C1291.907,637.79,1290.894,638.803,1289.645,638.803z"/>
					<path style="fill:#CCE6FF;" d="M1289.645,650.934h-101.656c-1.25,0-2.263-1.013-2.263-2.263l0,0
						c0-1.25,1.013-2.263,2.263-2.263h101.656c1.25,0,2.263,1.013,2.263,2.263l0,0
						C1291.907,649.921,1290.894,650.934,1289.645,650.934z"/>
				</g>
			</g>
			<g>
				<path style="fill:#CCE6FF;" d="M1115.217,843.708H993.933c-3.124,0-5.656-2.532-5.656-5.656V680.247
					c0-3.124,2.532-5.656,5.656-5.656h121.284c3.124,0,5.656,2.532,5.656,5.656v157.806
					C1120.873,841.176,1118.341,843.708,1115.217,843.708z"/>
				<g>
					<circle style="fill:#CCE6FF;" cx="1154.752" cy="685.182" r="10.591"/>
					<path style="fill:#CCE6FF;" d="M1288.384,681.379h-101.656c-1.25,0-2.263-1.013-2.263-2.263l0,0
						c0-1.25,1.013-2.263,2.263-2.263h101.656c1.25,0,2.263,1.013,2.263,2.263l0,0
						C1290.647,680.366,1289.634,681.379,1288.384,681.379z"/>
					<path style="fill:#CCE6FF;" d="M1288.384,693.51h-101.656c-1.25,0-2.263-1.013-2.263-2.263l0,0c0-1.25,1.013-2.263,2.263-2.263
						h101.656c1.25,0,2.263,1.013,2.263,2.263l0,0C1290.647,692.497,1289.634,693.51,1288.384,693.51z"/>
					<path style="fill:#CCE6FF;" d="M1288.384,705.64h-101.656c-1.25,0-2.263-1.013-2.263-2.263l0,0c0-1.25,1.013-2.263,2.263-2.263
						h101.656c1.25,0,2.263,1.013,2.263,2.263l0,0C1290.647,704.627,1289.634,705.64,1288.384,705.64z"/>
				</g>
				<g>
					
						<ellipse transform="matrix(0.2287 -0.9735 0.9735 0.2287 180.7347 1686.5947)" style="fill:#CCE6FF;" cx="1154.752" cy="729.238" rx="10.591" ry="10.591"/>
					<path style="fill:#CCE6FF;" d="M1288.384,725.436h-101.656c-1.25,0-2.263-1.013-2.263-2.263l0,0
						c0-1.25,1.013-2.263,2.263-2.263h101.656c1.25,0,2.263,1.013,2.263,2.263l0,0
						C1290.647,724.423,1289.634,725.436,1288.384,725.436z"/>
					<path style="fill:#CCE6FF;" d="M1288.384,737.566h-101.656c-1.25,0-2.263-1.013-2.263-2.263l0,0
						c0-1.25,1.013-2.263,2.263-2.263h101.656c1.25,0,2.263,1.013,2.263,2.263l0,0
						C1290.647,736.553,1289.634,737.566,1288.384,737.566z"/>
					<path style="fill:#CCE6FF;" d="M1288.384,749.697h-101.656c-1.25,0-2.263-1.013-2.263-2.263v0c0-1.25,1.013-2.263,2.263-2.263
						h101.656c1.25,0,2.263,1.013,2.263,2.263v0C1290.647,748.684,1289.634,749.697,1288.384,749.697z"/>
				</g>
				<g>
					
						<ellipse transform="matrix(0.2287 -0.9735 0.9735 0.2287 137.8459 1720.575)" style="fill:#CCE6FF;" cx="1154.752" cy="773.295" rx="10.591" ry="10.591"/>
					<path style="fill:#CCE6FF;" d="M1288.384,769.492h-101.656c-1.25,0-2.263-1.013-2.263-2.263l0,0
						c0-1.25,1.013-2.263,2.263-2.263h101.656c1.25,0,2.263,1.013,2.263,2.263l0,0
						C1290.647,768.479,1289.634,769.492,1288.384,769.492z"/>
					<path style="fill:#CCE6FF;" d="M1288.384,781.623h-101.656c-1.25,0-2.263-1.013-2.263-2.263l0,0
						c0-1.25,1.013-2.263,2.263-2.263h101.656c1.25,0,2.263,1.013,2.263,2.263l0,0
						C1290.647,780.61,1289.634,781.623,1288.384,781.623z"/>
					<path style="fill:#CCE6FF;" d="M1288.384,793.754h-101.656c-1.25,0-2.263-1.013-2.263-2.263l0,0
						c0-1.25,1.013-2.263,2.263-2.263h101.656c1.25,0,2.263,1.013,2.263,2.263l0,0
						C1290.647,792.74,1289.634,793.754,1288.384,793.754z"/>
				</g>
				<g>
					
						<ellipse transform="matrix(0.7071 -0.7071 0.7071 0.7071 -239.7357 1055.9299)" style="fill:#CCE6FF;" cx="1154.752" cy="817.352" rx="10.591" ry="10.591"/>
					<path style="fill:#CCE6FF;" d="M1288.384,813.549h-101.656c-1.25,0-2.263-1.013-2.263-2.263l0,0
						c0-1.25,1.013-2.263,2.263-2.263h101.656c1.25,0,2.263,1.013,2.263,2.263l0,0
						C1290.647,812.536,1289.634,813.549,1288.384,813.549z"/>
					<path style="fill:#CCE6FF;" d="M1288.384,825.68h-101.656c-1.25,0-2.263-1.013-2.263-2.263l0,0c0-1.25,1.013-2.263,2.263-2.263
						h101.656c1.25,0,2.263,1.013,2.263,2.263l0,0C1290.647,824.667,1289.634,825.68,1288.384,825.68z"/>
					<path style="fill:#CCE6FF;" d="M1288.384,837.81h-101.656c-1.25,0-2.263-1.013-2.263-2.263l0,0c0-1.25,1.013-2.263,2.263-2.263
						h101.656c1.25,0,2.263,1.013,2.263,2.263l0,0C1290.647,836.797,1289.634,837.81,1288.384,837.81z"/>
				</g>
			</g>
			<g>
				<path style="fill:#CCE6FF;" d="M1113.957,1030.584H992.673c-3.124,0-5.656-2.532-5.656-5.656V867.123
					c0-3.124,2.532-5.656,5.656-5.656h121.284c3.124,0,5.656,2.532,5.656,5.656v157.805
					C1119.613,1028.052,1117.08,1030.584,1113.957,1030.584z"/>
				<g>
					<circle style="fill:#CCE6FF;" cx="1153.492" cy="872.058" r="10.591"/>
					<path style="fill:#CCE6FF;" d="M1287.123,868.256h-101.656c-1.25,0-2.263-1.013-2.263-2.263l0,0
						c0-1.25,1.013-2.263,2.263-2.263h101.656c1.25,0,2.263,1.013,2.263,2.263l0,0
						C1289.386,867.243,1288.373,868.256,1287.123,868.256z"/>
					<path style="fill:#CCE6FF;" d="M1287.123,880.386h-101.656c-1.25,0-2.263-1.013-2.263-2.263l0,0
						c0-1.25,1.013-2.263,2.263-2.263h101.656c1.25,0,2.263,1.013,2.263,2.263l0,0
						C1289.386,879.373,1288.373,880.386,1287.123,880.386z"/>
					<path style="fill:#CCE6FF;" d="M1287.123,892.517h-101.656c-1.25,0-2.263-1.013-2.263-2.263l0,0
						c0-1.25,1.013-2.263,2.263-2.263h101.656c1.25,0,2.263,1.013,2.263,2.263l0,0
						C1289.386,891.504,1288.373,892.517,1287.123,892.517z"/>
				</g>
				<g>
					
						<ellipse transform="matrix(0.2287 -0.9735 0.9735 0.2287 -2.1605 1829.5026)" style="fill:#CCE6FF;" cx="1153.492" cy="916.115" rx="10.591" ry="10.591"/>
					<path style="fill:#CCE6FF;" d="M1287.123,912.312h-101.656c-1.25,0-2.263-1.013-2.263-2.263v0c0-1.25,1.013-2.263,2.263-2.263
						h101.656c1.25,0,2.263,1.013,2.263,2.263v0C1289.386,911.299,1288.373,912.312,1287.123,912.312z"/>
					<path style="fill:#CCE6FF;" d="M1287.123,924.443h-101.656c-1.25,0-2.263-1.013-2.263-2.263l0,0
						c0-1.25,1.013-2.263,2.263-2.263h101.656c1.25,0,2.263,1.013,2.263,2.263l0,0
						C1289.386,923.43,1288.373,924.443,1287.123,924.443z"/>
					<path style="fill:#CCE6FF;" d="M1287.123,936.573h-101.656c-1.25,0-2.263-1.013-2.263-2.263l0,0
						c0-1.25,1.013-2.263,2.263-2.263h101.656c1.25,0,2.263,1.013,2.263,2.263l0,0
						C1289.386,935.56,1288.373,936.573,1287.123,936.573z"/>
				</g>
				<g>
					
						<ellipse transform="matrix(0.2287 -0.9735 0.9735 0.2287 -45.0493 1863.4828)" style="fill:#CCE6FF;" cx="1153.492" cy="960.171" rx="10.591" ry="10.591"/>
					<path style="fill:#CCE6FF;" d="M1287.123,956.369h-101.656c-1.25,0-2.263-1.013-2.263-2.263l0,0
						c0-1.25,1.013-2.263,2.263-2.263h101.656c1.25,0,2.263,1.013,2.263,2.263l0,0
						C1289.386,955.356,1288.373,956.369,1287.123,956.369z"/>
					<path style="fill:#CCE6FF;" d="M1287.123,968.5h-101.656c-1.25,0-2.263-1.013-2.263-2.263l0,0c0-1.25,1.013-2.263,2.263-2.263
						h101.656c1.25,0,2.263,1.013,2.263,2.263l0,0C1289.386,967.486,1288.373,968.5,1287.123,968.5z"/>
					<path style="fill:#CCE6FF;" d="M1287.123,980.63h-101.656c-1.25,0-2.263-1.013-2.263-2.263l0,0c0-1.25,1.013-2.263,2.263-2.263
						h101.656c1.25,0,2.263,1.013,2.263,2.263l0,0C1289.386,979.617,1288.373,980.63,1287.123,980.63z"/>
				</g>
				<g>
					
						<ellipse transform="matrix(0.7071 -0.7071 0.7071 0.7071 -372.2465 1109.7734)" style="fill:#CCE6FF;" cx="1153.492" cy="1004.228" rx="10.591" ry="10.591"/>
					<path style="fill:#CCE6FF;" d="M1287.123,1000.425h-101.656c-1.25,0-2.263-1.013-2.263-2.263l0,0
						c0-1.25,1.013-2.263,2.263-2.263h101.656c1.25,0,2.263,1.013,2.263,2.263l0,0
						C1289.386,999.412,1288.373,1000.425,1287.123,1000.425z"/>
					<path style="fill:#CCE6FF;" d="M1287.123,1012.556h-101.656c-1.25,0-2.263-1.013-2.263-2.263l0,0
						c0-1.25,1.013-2.263,2.263-2.263h101.656c1.25,0,2.263,1.013,2.263,2.263l0,0
						C1289.386,1011.543,1288.373,1012.556,1287.123,1012.556z"/>
					<path style="fill:#CCE6FF;" d="M1287.123,1024.687h-101.656c-1.25,0-2.263-1.013-2.263-2.263l0,0
						c0-1.25,1.013-2.263,2.263-2.263h101.656c1.25,0,2.263,1.013,2.263,2.263l0,0
						C1289.386,1023.674,1288.373,1024.687,1287.123,1024.687z"/>
				</g>
			</g>
			<g>
				<path style="fill:#F4F7FD;" d="M1095.833,575.419h-81.993c-2.607,0-4.72-2.113-4.72-4.72v-64.281c0-2.607,2.113-4.72,4.72-4.72
					h81.993c2.607,0,4.72,2.113,4.72,4.72V570.7C1100.552,573.306,1098.439,575.419,1095.833,575.419z"/>
				<path style="fill:#F4F7FD;" d="M1097.741,592.484h-85.81c-1.553,0-2.812-1.259-2.812-2.812v-0.442
					c0-1.553,1.259-2.812,2.812-2.812h85.81c1.553,0,2.812,1.259,2.812,2.812v0.442
					C1100.552,591.225,1099.293,592.484,1097.741,592.484z"/>
				<path style="fill:#F4F7FD;" d="M1097.741,605.384h-85.81c-1.553,0-2.812-1.259-2.812-2.812v-0.442
					c0-1.553,1.259-2.812,2.812-2.812h85.81c1.553,0,2.812,1.259,2.812,2.812v0.442
					C1100.552,604.125,1099.293,605.384,1097.741,605.384z"/>
				<path style="fill:#F4F7FD;" d="M1097.741,618.284h-85.81c-1.553,0-2.812-1.259-2.812-2.812v-0.442
					c0-1.553,1.259-2.812,2.812-2.812h85.81c1.553,0,2.812,1.259,2.812,2.812v0.442
					C1100.552,617.026,1099.293,618.284,1097.741,618.284z"/>
				<path style="fill:#F4F7FD;" d="M1097.741,631.185h-85.81c-1.553,0-2.812-1.259-2.812-2.812v-0.442
					c0-1.553,1.259-2.812,2.812-2.812h85.81c1.553,0,2.812,1.259,2.812,2.812v0.442
					C1100.552,629.926,1099.293,631.185,1097.741,631.185z"/>
				<path style="fill:#F4F7FD;" d="M1097.741,644.085h-85.81c-1.553,0-2.812-1.259-2.812-2.812v-0.442
					c0-1.553,1.259-2.812,2.812-2.812h85.81c1.553,0,2.812,1.259,2.812,2.812v0.442
					C1100.552,642.826,1099.293,644.085,1097.741,644.085z"/>
			</g>
			<g>
				<path style="fill:#F4F7FD;" d="M1095.833,761.676h-81.993c-2.607,0-4.72-2.113-4.72-4.72v-64.281c0-2.607,2.113-4.72,4.72-4.72
					h81.993c2.607,0,4.72,2.113,4.72,4.72v64.281C1100.552,759.563,1098.439,761.676,1095.833,761.676z"/>
				<path style="fill:#F4F7FD;" d="M1097.741,778.741h-85.81c-1.553,0-2.812-1.259-2.812-2.812v-0.442
					c0-1.553,1.259-2.812,2.812-2.812h85.81c1.553,0,2.812,1.259,2.812,2.812v0.442
					C1100.552,777.482,1099.293,778.741,1097.741,778.741z"/>
				<path style="fill:#F4F7FD;" d="M1097.741,791.641h-85.81c-1.553,0-2.812-1.259-2.812-2.812v-0.442
					c0-1.553,1.259-2.812,2.812-2.812h85.81c1.553,0,2.812,1.259,2.812,2.812v0.442
					C1100.552,790.382,1099.293,791.641,1097.741,791.641z"/>
				<path style="fill:#F4F7FD;" d="M1097.741,804.542h-85.81c-1.553,0-2.812-1.259-2.812-2.812v-0.442
					c0-1.553,1.259-2.812,2.812-2.812h85.81c1.553,0,2.812,1.259,2.812,2.812v0.442
					C1100.552,803.283,1099.293,804.542,1097.741,804.542z"/>
				<path style="fill:#F4F7FD;" d="M1097.741,817.442h-85.81c-1.553,0-2.812-1.259-2.812-2.812v-0.442
					c0-1.553,1.259-2.812,2.812-2.812h85.81c1.553,0,2.812,1.259,2.812,2.812v0.442
					C1100.552,816.183,1099.293,817.442,1097.741,817.442z"/>
				<path style="fill:#F4F7FD;" d="M1097.741,830.342h-85.81c-1.553,0-2.812-1.259-2.812-2.812v-0.442
					c0-1.553,1.259-2.812,2.812-2.812h85.81c1.553,0,2.812,1.259,2.812,2.812v0.442
					C1100.552,829.083,1099.293,830.342,1097.741,830.342z"/>
			</g>
			<g>
				<path style="fill:#F4F7FD;" d="M1095.833,947.933h-81.993c-2.607,0-4.72-2.113-4.72-4.72v-64.281c0-2.607,2.113-4.72,4.72-4.72
					h81.993c2.607,0,4.72,2.113,4.72,4.72v64.281C1100.552,945.82,1098.439,947.933,1095.833,947.933z"/>
				<path style="fill:#F4F7FD;" d="M1097.741,964.998h-85.81c-1.553,0-2.812-1.259-2.812-2.812v-0.442
					c0-1.553,1.259-2.812,2.812-2.812h85.81c1.553,0,2.812,1.259,2.812,2.812v0.442
					C1100.552,963.739,1099.293,964.998,1097.741,964.998z"/>
				<path style="fill:#F4F7FD;" d="M1097.741,977.898h-85.81c-1.553,0-2.812-1.259-2.812-2.812v-0.442
					c0-1.553,1.259-2.812,2.812-2.812h85.81c1.553,0,2.812,1.259,2.812,2.812v0.442
					C1100.552,976.639,1099.293,977.898,1097.741,977.898z"/>
				<path style="fill:#F4F7FD;" d="M1097.741,990.798h-85.81c-1.553,0-2.812-1.259-2.812-2.812v-0.442
					c0-1.553,1.259-2.812,2.812-2.812h85.81c1.553,0,2.812,1.259,2.812,2.812v0.442
					C1100.552,989.54,1099.293,990.798,1097.741,990.798z"/>
				<path style="fill:#F4F7FD;" d="M1097.741,1003.699h-85.81c-1.553,0-2.812-1.259-2.812-2.812v-0.442
					c0-1.553,1.259-2.812,2.812-2.812h85.81c1.553,0,2.812,1.259,2.812,2.812v0.442
					C1100.552,1002.44,1099.293,1003.699,1097.741,1003.699z"/>
				<path style="fill:#F4F7FD;" d="M1097.741,1016.599h-85.81c-1.553,0-2.812-1.259-2.812-2.812v-0.442
					c0-1.553,1.259-2.812,2.812-2.812h85.81c1.553,0,2.812,1.259,2.812,2.812v0.442
					C1100.552,1015.34,1099.293,1016.599,1097.741,1016.599z"/>
			</g>
		</g>
		<g>
			<path style="fill:#F4F7FD;" d="M2090.574,1062.39h-316.412c-6.806,0-12.323-5.517-12.323-12.323V472.302
				c0-6.806,5.517-12.323,12.323-12.323h316.412c6.806,0,12.323,5.517,12.323,12.323v577.764
				C2102.897,1056.872,2097.38,1062.39,2090.574,1062.39z"/>
			<g>
				<path style="fill:#CCE6FF;" d="M2072.765,487.737h-98.989c-1.806,0-3.271-1.464-3.271-3.271l0,0
					c0-1.806,1.464-3.271,3.271-3.271h98.989c1.806,0,3.271,1.464,3.271,3.271l0,0
					C2076.035,486.272,2074.571,487.737,2072.765,487.737z"/>
				<path style="fill:#CCE6FF;" d="M2072.765,502.696h-98.989c-1.806,0-3.271-1.464-3.271-3.271l0,0
					c0-1.806,1.464-3.271,3.271-3.271h98.989c1.806,0,3.271,1.464,3.271,3.271l0,0
					C2076.035,501.232,2074.571,502.696,2072.765,502.696z"/>
				<path style="fill:#CCE6FF;" d="M2072.765,517.655h-98.989c-1.806,0-3.271-1.464-3.271-3.271l0,0
					c0-1.806,1.464-3.271,3.271-3.271h98.989c1.806,0,3.271,1.464,3.271,3.271l0,0
					C2076.035,516.191,2074.571,517.655,2072.765,517.655z"/>
				<path style="fill:#CCE6FF;" d="M2072.765,532.615h-98.989c-1.806,0-3.271-1.464-3.271-3.271l0,0
					c0-1.806,1.464-3.271,3.271-3.271h98.989c1.806,0,3.271,1.464,3.271,3.271l0,0
					C2076.035,531.151,2074.571,532.615,2072.765,532.615z"/>
				<path style="fill:#CCE6FF;" d="M2072.765,547.574h-98.989c-1.806,0-3.271-1.464-3.271-3.271l0,0
					c0-1.806,1.464-3.271,3.271-3.271h98.989c1.806,0,3.271,1.464,3.271,3.271l0,0
					C2076.035,546.11,2074.571,547.574,2072.765,547.574z"/>
				<path style="fill:#CCE6FF;" d="M2072.765,562.534h-98.989c-1.806,0-3.271-1.464-3.271-3.271l0,0
					c0-1.806,1.464-3.271,3.271-3.271h98.989c1.806,0,3.271,1.464,3.271,3.271l0,0
					C2076.035,561.069,2074.571,562.534,2072.765,562.534z"/>
				<path style="fill:#CCE6FF;" d="M2072.765,577.493h-98.989c-1.806,0-3.271-1.464-3.271-3.271l0,0
					c0-1.806,1.464-3.271,3.271-3.271h98.989c1.806,0,3.271,1.464,3.271,3.271l0,0
					C2076.035,576.029,2074.571,577.493,2072.765,577.493z"/>
				<path style="fill:#CCE6FF;" d="M2072.765,861.923h-98.989c-1.806,0-3.271-1.464-3.271-3.271l0,0
					c0-1.806,1.464-3.271,3.271-3.271h98.989c1.806,0,3.271,1.464,3.271,3.271l0,0
					C2076.035,860.458,2074.571,861.923,2072.765,861.923z"/>
				<path style="fill:#CCE6FF;" d="M2072.765,876.882h-98.989c-1.806,0-3.271-1.464-3.271-3.271l0,0
					c0-1.806,1.464-3.271,3.271-3.271h98.989c1.806,0,3.271,1.464,3.271,3.271l0,0
					C2076.035,875.418,2074.571,876.882,2072.765,876.882z"/>
				<path style="fill:#CCE6FF;" d="M2072.765,891.841h-98.989c-1.806,0-3.271-1.464-3.271-3.271l0,0
					c0-1.806,1.464-3.271,3.271-3.271h98.989c1.806,0,3.271,1.464,3.271,3.271l0,0
					C2076.035,890.377,2074.571,891.841,2072.765,891.841z"/>
				<path style="fill:#CCE6FF;" d="M2072.765,906.801h-98.989c-1.806,0-3.271-1.464-3.271-3.271l0,0
					c0-1.806,1.464-3.271,3.271-3.271h98.989c1.806,0,3.271,1.464,3.271,3.271l0,0
					C2076.035,905.337,2074.571,906.801,2072.765,906.801z"/>
				<path style="fill:#CCE6FF;" d="M2072.765,921.76h-98.989c-1.806,0-3.271-1.464-3.271-3.271l0,0c0-1.806,1.464-3.271,3.271-3.271
					h98.989c1.806,0,3.271,1.464,3.271,3.271l0,0C2076.035,920.296,2074.571,921.76,2072.765,921.76z"/>
				<path style="fill:#CCE6FF;" d="M2072.765,936.72h-98.989c-1.806,0-3.271-1.464-3.271-3.271l0,0c0-1.806,1.464-3.271,3.271-3.271
					h98.989c1.806,0,3.271,1.464,3.271,3.271l0,0C2076.035,935.255,2074.571,936.72,2072.765,936.72z"/>
				<path style="fill:#CCE6FF;" d="M2072.765,951.679h-98.989c-1.806,0-3.271-1.464-3.271-3.271l0,0
					c0-1.806,1.464-3.271,3.271-3.271h98.989c1.806,0,3.271,1.464,3.271,3.271l0,0
					C2076.035,950.215,2074.571,951.679,2072.765,951.679z"/>
				<path style="fill:#CCE6FF;" d="M2072.765,968.472h-98.989c-1.806,0-3.271-1.464-3.271-3.271l0,0
					c0-1.806,1.464-3.271,3.271-3.271h98.989c1.806,0,3.271,1.464,3.271,3.271l0,0
					C2076.035,967.008,2074.571,968.472,2072.765,968.472z"/>
				<path style="fill:#CCE6FF;" d="M2072.765,983.432h-98.989c-1.806,0-3.271-1.464-3.271-3.271l0,0
					c0-1.806,1.464-3.271,3.271-3.271h98.989c1.806,0,3.271,1.464,3.271,3.271l0,0
					C2076.035,981.967,2074.571,983.432,2072.765,983.432z"/>
				<path style="fill:#CCE6FF;" d="M2072.765,998.391h-98.989c-1.806,0-3.271-1.464-3.271-3.271l0,0
					c0-1.806,1.464-3.271,3.271-3.271h98.989c1.806,0,3.271,1.464,3.271,3.271l0,0
					C2076.035,996.927,2074.571,998.391,2072.765,998.391z"/>
				<path style="fill:#CCE6FF;" d="M2072.765,1013.351h-98.989c-1.806,0-3.271-1.464-3.271-3.271l0,0
					c0-1.806,1.464-3.271,3.271-3.271h98.989c1.806,0,3.271,1.464,3.271,3.271l0,0
					C2076.035,1011.886,2074.571,1013.351,2072.765,1013.351z"/>
				<path style="fill:#CCE6FF;" d="M2072.765,1028.31h-98.989c-1.806,0-3.271-1.464-3.271-3.271l0,0
					c0-1.806,1.464-3.271,3.271-3.271h98.989c1.806,0,3.271,1.464,3.271,3.271l0,0
					C2076.035,1026.846,2074.571,1028.31,2072.765,1028.31z"/>
				<path style="fill:#CCE6FF;" d="M2072.765,1043.27h-98.989c-1.806,0-3.271-1.464-3.271-3.271l0,0
					c0-1.806,1.464-3.271,3.271-3.271h98.989c1.806,0,3.271,1.464,3.271,3.271l0,0
					C2076.035,1041.805,2074.571,1043.27,2072.765,1043.27z"/>
				<path style="fill:#CCE6FF;" d="M2072.765,592.453h-98.989c-1.806,0-3.271-1.464-3.271-3.271l0,0
					c0-1.806,1.464-3.271,3.271-3.271h98.989c1.806,0,3.271,1.464,3.271,3.271l0,0
					C2076.035,590.988,2074.571,592.453,2072.765,592.453z"/>
				<path style="fill:#CCE6FF;" d="M2072.765,607.412h-98.989c-1.806,0-3.271-1.464-3.271-3.271l0,0
					c0-1.806,1.464-3.271,3.271-3.271h98.989c1.806,0,3.271,1.464,3.271,3.271l0,0
					C2076.035,605.948,2074.571,607.412,2072.765,607.412z"/>
				<path style="fill:#CCE6FF;" d="M2072.765,622.372h-98.989c-1.806,0-3.271-1.464-3.271-3.271l0,0
					c0-1.806,1.464-3.271,3.271-3.271h98.989c1.806,0,3.271,1.464,3.271,3.271l0,0
					C2076.035,620.907,2074.571,622.372,2072.765,622.372z"/>
				<path style="fill:#CCE6FF;" d="M2072.765,637.331h-98.989c-1.806,0-3.271-1.464-3.271-3.271l0,0
					c0-1.806,1.464-3.271,3.271-3.271h98.989c1.806,0,3.271,1.464,3.271,3.271l0,0
					C2076.035,635.867,2074.571,637.331,2072.765,637.331z"/>
				<path style="fill:#CCE6FF;" d="M2072.765,652.29h-98.989c-1.806,0-3.271-1.464-3.271-3.271l0,0c0-1.806,1.464-3.271,3.271-3.271
					h98.989c1.806,0,3.271,1.464,3.271,3.271l0,0C2076.035,650.826,2074.571,652.29,2072.765,652.29z"/>
				<path style="fill:#CCE6FF;" d="M2072.765,667.25h-98.989c-1.806,0-3.271-1.464-3.271-3.271v0c0-1.806,1.464-3.271,3.271-3.271
					h98.989c1.806,0,3.271,1.464,3.271,3.271v0C2076.035,665.786,2074.571,667.25,2072.765,667.25z"/>
				<path style="fill:#CCE6FF;" d="M2072.765,682.209h-98.989c-1.806,0-3.271-1.464-3.271-3.271l0,0
					c0-1.806,1.464-3.271,3.271-3.271h98.989c1.806,0,3.271,1.464,3.271,3.271l0,0
					C2076.035,680.745,2074.571,682.209,2072.765,682.209z"/>
				<path style="fill:#CCE6FF;" d="M2072.765,697.169h-98.989c-1.806,0-3.271-1.464-3.271-3.271v0c0-1.806,1.464-3.271,3.271-3.271
					h98.989c1.806,0,3.271,1.464,3.271,3.271v0C2076.035,695.705,2074.571,697.169,2072.765,697.169z"/>
				<path style="fill:#CCE6FF;" d="M2072.765,712.128h-98.989c-1.806,0-3.271-1.464-3.271-3.271l0,0
					c0-1.806,1.464-3.271,3.271-3.271h98.989c1.806,0,3.271,1.464,3.271,3.271l0,0
					C2076.035,710.664,2074.571,712.128,2072.765,712.128z"/>
				<path style="fill:#CCE6FF;" d="M1938.965,746.011h-146.994c-1.806,0-3.271-1.464-3.271-3.271l0,0
					c0-1.806,1.464-3.271,3.271-3.271h146.994c1.806,0,3.271,1.464,3.271,3.271l0,0
					C1942.236,744.547,1940.772,746.011,1938.965,746.011z"/>
				<path style="fill:#CCE6FF;" d="M1938.965,760.971h-146.994c-1.806,0-3.271-1.464-3.271-3.271l0,0
					c0-1.806,1.464-3.271,3.271-3.271h146.994c1.806,0,3.271,1.464,3.271,3.271l0,0
					C1942.236,759.507,1940.772,760.971,1938.965,760.971z"/>
				<path style="fill:#CCE6FF;" d="M1938.965,775.93h-146.994c-1.806,0-3.271-1.464-3.271-3.271l0,0
					c0-1.806,1.464-3.271,3.271-3.271h146.994c1.806,0,3.271,1.464,3.271,3.271l0,0
					C1942.236,774.466,1940.772,775.93,1938.965,775.93z"/>
				<path style="fill:#CCE6FF;" d="M1938.965,790.89h-146.994c-1.806,0-3.271-1.464-3.271-3.271l0,0
					c0-1.806,1.464-3.271,3.271-3.271h146.994c1.806,0,3.271,1.464,3.271,3.271l0,0
					C1942.236,789.426,1940.772,790.89,1938.965,790.89z"/>
				<path style="fill:#CCE6FF;" d="M1938.965,805.849h-146.994c-1.806,0-3.271-1.464-3.271-3.271l0,0
					c0-1.806,1.464-3.271,3.271-3.271h146.994c1.806,0,3.271,1.464,3.271,3.271l0,0
					C1942.236,804.385,1940.772,805.849,1938.965,805.849z"/>
				<path style="fill:#CCE6FF;" d="M1938.965,820.809h-146.994c-1.806,0-3.271-1.464-3.271-3.271l0,0
					c0-1.806,1.464-3.271,3.271-3.271h146.994c1.806,0,3.271,1.464,3.271,3.271l0,0
					C1942.236,819.344,1940.772,820.809,1938.965,820.809z"/>
				<path style="fill:#CCE6FF;" d="M1938.965,835.768h-146.994c-1.806,0-3.271-1.464-3.271-3.271l0,0
					c0-1.806,1.464-3.271,3.271-3.271h146.994c1.806,0,3.271,1.464,3.271,3.271l0,0
					C1942.236,834.304,1940.772,835.768,1938.965,835.768z"/>
				<path style="fill:#CCE6FF;" d="M1938.965,850.728h-146.994c-1.806,0-3.271-1.464-3.271-3.271l0,0
					c0-1.806,1.464-3.271,3.271-3.271h146.994c1.806,0,3.271,1.464,3.271,3.271l0,0
					C1942.236,849.263,1940.772,850.728,1938.965,850.728z"/>
				<path style="fill:#CCE6FF;" d="M1938.965,865.687h-146.994c-1.806,0-3.271-1.464-3.271-3.271l0,0
					c0-1.806,1.464-3.271,3.271-3.271h146.994c1.806,0,3.271,1.464,3.271,3.271l0,0
					C1942.236,864.223,1940.772,865.687,1938.965,865.687z"/>
				<path style="fill:#CCE6FF;" d="M1938.965,880.647h-146.994c-1.806,0-3.271-1.464-3.271-3.271l0,0
					c0-1.806,1.464-3.271,3.271-3.271h146.994c1.806,0,3.271,1.464,3.271,3.271l0,0
					C1942.236,879.182,1940.772,880.647,1938.965,880.647z"/>
				<path style="fill:#CCE6FF;" d="M1938.965,895.606h-146.994c-1.806,0-3.271-1.464-3.271-3.271l0,0
					c0-1.806,1.464-3.271,3.271-3.271h146.994c1.806,0,3.271,1.464,3.271,3.271l0,0
					C1942.236,894.142,1940.772,895.606,1938.965,895.606z"/>
				<path style="fill:#CCE6FF;" d="M1938.965,910.565h-146.994c-1.806,0-3.271-1.464-3.271-3.271l0,0
					c0-1.806,1.464-3.271,3.271-3.271h146.994c1.806,0,3.271,1.464,3.271,3.271l0,0
					C1942.236,909.101,1940.772,910.565,1938.965,910.565z"/>
				<path style="fill:#CCE6FF;" d="M1938.965,925.525h-146.994c-1.806,0-3.271-1.464-3.271-3.271l0,0
					c0-1.806,1.464-3.271,3.271-3.271h146.994c1.806,0,3.271,1.464,3.271,3.271l0,0
					C1942.236,924.061,1940.772,925.525,1938.965,925.525z"/>
				<path style="fill:#CCE6FF;" d="M1938.965,940.484h-146.994c-1.806,0-3.271-1.464-3.271-3.271l0,0
					c0-1.806,1.464-3.271,3.271-3.271h146.994c1.806,0,3.271,1.464,3.271,3.271l0,0
					C1942.236,939.02,1940.772,940.484,1938.965,940.484z"/>
				<path style="fill:#CCE6FF;" d="M1938.965,955.444h-146.994c-1.806,0-3.271-1.464-3.271-3.271l0,0
					c0-1.806,1.464-3.271,3.271-3.271h146.994c1.806,0,3.271,1.464,3.271,3.271l0,0
					C1942.236,953.979,1940.772,955.444,1938.965,955.444z"/>
				<path style="fill:#CCE6FF;" d="M1938.965,970.403h-146.994c-1.806,0-3.271-1.464-3.271-3.271l0,0
					c0-1.806,1.464-3.271,3.271-3.271h146.994c1.806,0,3.271,1.464,3.271,3.271l0,0
					C1942.236,968.939,1940.772,970.403,1938.965,970.403z"/>
				<path style="fill:#CCE6FF;" d="M1938.965,984.375h-146.994c-1.806,0-3.271-1.464-3.271-3.271l0,0
					c0-1.806,1.464-3.271,3.271-3.271h146.994c1.806,0,3.271,1.464,3.271,3.271l0,0
					C1942.236,982.911,1940.772,984.375,1938.965,984.375z"/>
				<path style="fill:#CCE6FF;" d="M1938.965,999.334h-146.994c-1.806,0-3.271-1.464-3.271-3.271l0,0
					c0-1.806,1.464-3.271,3.271-3.271h146.994c1.806,0,3.271,1.464,3.271,3.271l0,0
					C1942.236,997.87,1940.772,999.334,1938.965,999.334z"/>
				<path style="fill:#CCE6FF;" d="M1938.965,1014.294h-146.994c-1.806,0-3.271-1.464-3.271-3.271l0,0
					c0-1.806,1.464-3.271,3.271-3.271h146.994c1.806,0,3.271,1.464,3.271,3.271l0,0
					C1942.236,1012.83,1940.772,1014.294,1938.965,1014.294z"/>
				<path style="fill:#CCE6FF;" d="M1938.965,1029.253h-146.994c-1.806,0-3.271-1.464-3.271-3.271l0,0
					c0-1.806,1.464-3.271,3.271-3.271h146.994c1.806,0,3.271,1.464,3.271,3.271l0,0
					C1942.236,1027.789,1940.772,1029.253,1938.965,1029.253z"/>
				<path style="fill:#CCE6FF;" d="M1938.965,1044.213h-146.994c-1.806,0-3.271-1.464-3.271-3.271l0,0
					c0-1.806,1.464-3.271,3.271-3.271h146.994c1.806,0,3.271,1.464,3.271,3.271l0,0
					C1942.236,1042.749,1940.772,1044.213,1938.965,1044.213z"/>
				<path style="fill:#CCE6FF;" d="M2073.231,836.578h-99.922c-1.549,0-2.804-1.256-2.804-2.804v-92.317
					c0-1.549,1.255-2.804,2.804-2.804h99.922c1.549,0,2.804,1.255,2.804,2.804v92.317
					C2076.035,835.322,2074.78,836.578,2073.231,836.578z"/>
				<g>
					<path style="fill:#CCE6FF;" d="M1938.452,712.128h-145.967c-2.09,0-3.784-1.694-3.784-3.784V484.979
						c0-2.09,1.694-3.784,3.784-3.784h145.967c2.09,0,3.784,1.694,3.784,3.784v223.365
						C1942.236,710.434,1940.542,712.128,1938.452,712.128z"/>
					<g>
						<path style="fill:#F4F7FD;" d="M1925.516,562.534h-120.094c-1.261,0-2.284-1.023-2.284-2.284v-62.377
							c0-1.261,1.023-2.284,2.284-2.284h120.094c1.261,0,2.284,1.023,2.284,2.284v62.377
							C1927.799,561.511,1926.777,562.534,1925.516,562.534z"/>
						<path style="fill:#F4F7FD;" d="M1925.516,637.614h-120.094c-1.261,0-2.284-1.023-2.284-2.284v-62.377
							c0-1.261,1.023-2.284,2.284-2.284h120.094c1.261,0,2.284,1.023,2.284,2.284v62.377
							C1927.799,636.591,1926.777,637.614,1925.516,637.614z"/>
						<path style="fill:#F4F7FD;" d="M1859.835,701.325h-54.716c-1.094,0-1.981-0.887-1.981-1.981v-51.613
							c0-1.094,0.887-1.981,1.981-1.981h54.716c1.094,0,1.981,0.887,1.981,1.981v51.613
							C1861.816,700.438,1860.929,701.325,1859.835,701.325z"/>
						<path style="fill:#F4F7FD;" d="M1925.794,701.325h-56.097c-1.108,0-2.005-0.898-2.005-2.005v-51.565
							c0-1.108,0.898-2.005,2.005-2.005h56.097c1.108,0,2.005,0.898,2.005,2.005v51.565
							C1927.799,700.427,1926.902,701.325,1925.794,701.325z"/>
					</g>
				</g>
			</g>
		</g>
		<g>
			<path style="fill:#F4F7FD;" d="M1694.121,1062.39h-316.412c-6.806,0-12.323-5.517-12.323-12.323V472.302
				c0-6.806,5.517-12.323,12.323-12.323h316.412c6.806,0,12.323,5.517,12.323,12.323v577.764
				C1706.445,1056.872,1700.927,1062.39,1694.121,1062.39z"/>
			<path style="fill:#CCE6FF;" d="M1521.153,622.147h-123.055c-3.136,0-5.678-2.542-5.678-5.678V493.414
				c0-3.136,2.542-5.678,5.678-5.678h123.055c3.136,0,5.678,2.542,5.678,5.678v123.055
				C1526.831,619.605,1524.289,622.147,1521.153,622.147z"/>
			<path style="fill:#CCE6FF;" d="M1680.067,495.903h-95.384c-1.638,0-2.966-1.328-2.966-2.966v-2.234
				c0-1.638,1.328-2.966,2.966-2.966h95.384c1.638,0,2.966,1.328,2.966,2.966v2.234
				C1683.033,494.575,1681.705,495.903,1680.067,495.903z"/>
			<path style="fill:#CCE6FF;" d="M1680.067,510.147h-95.384c-1.638,0-2.966-1.328-2.966-2.966v-2.234
				c0-1.638,1.328-2.966,2.966-2.966h95.384c1.638,0,2.966,1.328,2.966,2.966v2.234
				C1683.033,508.819,1681.705,510.147,1680.067,510.147z"/>
			<path style="fill:#CCE6FF;" d="M1680.067,524.391h-95.384c-1.638,0-2.966-1.328-2.966-2.966v-2.234
				c0-1.638,1.328-2.966,2.966-2.966h95.384c1.638,0,2.966,1.328,2.966,2.966v2.234
				C1683.033,523.063,1681.705,524.391,1680.067,524.391z"/>
			<path style="fill:#CCE6FF;" d="M1680.067,538.635h-95.384c-1.638,0-2.966-1.328-2.966-2.966v-2.234
				c0-1.638,1.328-2.966,2.966-2.966h95.384c1.638,0,2.966,1.328,2.966,2.966v2.234
				C1683.033,537.307,1681.705,538.635,1680.067,538.635z"/>
			<path style="fill:#CCE6FF;" d="M1680.067,552.879h-95.384c-1.638,0-2.966-1.328-2.966-2.966v-2.234
				c0-1.638,1.328-2.966,2.966-2.966h95.384c1.638,0,2.966,1.328,2.966,2.966v2.234
				C1683.033,551.552,1681.705,552.879,1680.067,552.879z"/>
			<path style="fill:#CCE6FF;" d="M1680.067,567.123h-95.384c-1.638,0-2.966-1.328-2.966-2.966v-2.234
				c0-1.638,1.328-2.966,2.966-2.966h95.384c1.638,0,2.966,1.328,2.966,2.966v2.234
				C1683.033,565.796,1681.705,567.123,1680.067,567.123z"/>
			<path style="fill:#CCE6FF;" d="M1680.067,581.368h-95.384c-1.638,0-2.966-1.328-2.966-2.966v-2.234
				c0-1.638,1.328-2.966,2.966-2.966h95.384c1.638,0,2.966,1.328,2.966,2.966v2.234
				C1683.033,580.04,1681.705,581.368,1680.067,581.368z"/>
			<path style="fill:#CCE6FF;" d="M1680.067,595.612h-95.384c-1.638,0-2.966-1.328-2.966-2.966v-2.234
				c0-1.638,1.328-2.966,2.966-2.966h95.384c1.638,0,2.966,1.328,2.966,2.966v2.234
				C1683.033,594.284,1681.705,595.612,1680.067,595.612z"/>
			<path style="fill:#CCE6FF;" d="M1680.067,609.856h-95.384c-1.638,0-2.966-1.328-2.966-2.966v-2.234
				c0-1.638,1.328-2.966,2.966-2.966h95.384c1.638,0,2.966,1.328,2.966,2.966v2.234
				C1683.033,608.528,1681.705,609.856,1680.067,609.856z"/>
			<path style="fill:#CCE6FF;" d="M1680.067,624.1h-95.384c-1.638,0-2.966-1.328-2.966-2.966V618.9c0-1.638,1.328-2.966,2.966-2.966
				h95.384c1.638,0,2.966,1.328,2.966,2.966v2.234C1683.033,622.772,1681.705,624.1,1680.067,624.1z"/>
			<g>
				<circle style="fill:#CCE6FF;" cx="1552.494" cy="500.895" r="7.122"/>
				<circle style="fill:#CCE6FF;" cx="1552.494" cy="556.895" r="7.122"/>
				<path style="fill:#CCE6FF;" d="M1559.616,612.895c0,3.933-3.189,7.122-7.122,7.122c-3.933,0-7.122-3.189-7.122-7.122
					c0-3.934,3.189-7.122,7.122-7.122C1556.427,605.773,1559.616,608.962,1559.616,612.895z"/>
			</g>
			<rect x="1392.42" y="644.085" style="fill:#CCE6FF;" width="290.612" height="16.623"/>
			<rect x="1392.42" y="672.911" style="fill:#CCE6FF;" width="290.612" height="16.623"/>
			<rect x="1392.42" y="701.737" style="fill:#CCE6FF;" width="152.951" height="16.623"/>
			<path style="fill:#CCE6FF;" d="M1680.821,749.697h-286.19c-1.221,0-2.211-0.99-2.211-2.211v-5.445
				c0-1.221,0.99-2.211,2.211-2.211h286.19c1.221,0,2.211,0.99,2.211,2.211v5.445
				C1683.033,748.707,1682.043,749.697,1680.821,749.697z"/>
			<path style="fill:#CCE6FF;" d="M1680.821,769.901h-286.19c-1.221,0-2.211-0.99-2.211-2.211v-5.445
				c0-1.221,0.99-2.211,2.211-2.211h286.19c1.221,0,2.211,0.99,2.211,2.211v5.445
				C1683.033,768.911,1682.043,769.901,1680.821,769.901z"/>
			<path style="fill:#CCE6FF;" d="M1680.821,790.104h-286.19c-1.221,0-2.211-0.99-2.211-2.211v-5.445
				c0-1.221,0.99-2.211,2.211-2.211h286.19c1.221,0,2.211,0.99,2.211,2.211v5.445
				C1683.033,789.114,1682.043,790.104,1680.821,790.104z"/>
			<path style="fill:#CCE6FF;" d="M1680.821,810.308h-286.19c-1.221,0-2.211-0.99-2.211-2.211v-5.445
				c0-1.221,0.99-2.211,2.211-2.211h286.19c1.221,0,2.211,0.99,2.211,2.211v5.445
				C1683.033,809.318,1682.043,810.308,1680.821,810.308z"/>
			<path style="fill:#CCE6FF;" d="M1680.821,830.512h-286.19c-1.221,0-2.211-0.99-2.211-2.211v-5.445
				c0-1.221,0.99-2.211,2.211-2.211h286.19c1.221,0,2.211,0.99,2.211,2.211v5.445
				C1683.033,829.522,1682.043,830.512,1680.821,830.512z"/>
			<path style="fill:#CCE6FF;" d="M1680.821,850.716h-286.19c-1.221,0-2.211-0.99-2.211-2.211v-5.445
				c0-1.221,0.99-2.211,2.211-2.211h286.19c1.221,0,2.211,0.99,2.211,2.211v5.445
				C1683.033,849.726,1682.043,850.716,1680.821,850.716z"/>
			<path style="fill:#CCE6FF;" d="M1537.888,870.919h-143.895c-0.869,0-1.573-0.704-1.573-1.573v-6.722
				c0-0.869,0.704-1.573,1.573-1.573h143.895c0.869,0,1.573,0.704,1.573,1.573v6.722
				C1539.461,870.215,1538.757,870.919,1537.888,870.919z"/>
			<g>
				<path style="fill:#CCE6FF;" d="M1470.508,990.798h-70.162c-4.377,0-7.925-3.548-7.925-7.925v-74.688
					c0-4.377,3.548-7.925,7.925-7.925h70.162c4.377,0,7.925,3.548,7.925,7.925v74.688
					C1478.433,987.25,1474.885,990.798,1470.508,990.798z"/>
				<path style="fill:#CCE6FF;" d="M1572.807,990.407h-70.162c-4.377,0-7.925-3.548-7.925-7.926v-74.688
					c0-4.377,3.548-7.926,7.925-7.926h70.162c4.377,0,7.926,3.548,7.926,7.926v74.688
					C1580.733,986.859,1577.185,990.407,1572.807,990.407z"/>
				<path style="fill:#CCE6FF;" d="M1675.107,990.016h-70.162c-4.377,0-7.926-3.548-7.926-7.926v-74.688
					c0-4.377,3.548-7.925,7.926-7.925h70.162c4.377,0,7.926,3.548,7.926,7.925v74.688
					C1683.033,986.468,1679.484,990.016,1675.107,990.016z"/>
			</g>
			<g>
				<path style="fill:#CCE6FF;" d="M1681.73,1016.599h-288.006c-0.72,0-1.303-0.583-1.303-1.303v-5.963
					c0-0.72,0.583-1.303,1.303-1.303h288.006c0.72,0,1.303,0.583,1.303,1.303v5.963
					C1683.033,1016.016,1682.449,1016.599,1681.73,1016.599z"/>
				<path style="fill:#CCE6FF;" d="M1681.73,1032.594h-288.006c-0.72,0-1.303-0.583-1.303-1.303v-5.963
					c0-0.72,0.583-1.303,1.303-1.303h288.006c0.72,0,1.303,0.583,1.303,1.303v5.963
					C1683.033,1032.011,1682.449,1032.594,1681.73,1032.594z"/>
				<path style="fill:#CCE6FF;" d="M1565.236,1048.59h-171.808c-0.557,0-1.008-0.451-1.008-1.008v-6.553
					c0-0.557,0.451-1.008,1.008-1.008h171.808c0.557,0,1.008,0.451,1.008,1.008v6.553
					C1566.244,1048.139,1565.792,1048.59,1565.236,1048.59z"/>
			</g>
		</g>
	</g>
	<g>
		<path style="fill:#3C94F8;" d="M1025.812,709.96H799.449c-6.29,0-11.389-5.099-11.389-11.389V550.249
			c0-6.29,5.099-11.389,11.389-11.389h226.362c6.29,0,11.389,5.099,11.389,11.389v148.322
			C1037.2,704.861,1032.101,709.96,1025.812,709.96z"/>
		<g>
			<path style="fill:#102A54;" d="M852.221,639.377c0,5.993-0.887,10.649-2.661,13.967c-3.291,6.058-9.549,9.086-18.774,9.086
				c-5.323,0-9.871-1.442-13.645-4.326c-3.774-2.883-5.662-8.014-5.662-15.393v-5.075h9.038v5.075c0,3.866,0.863,6.775,2.591,8.724
				c1.728,1.95,4.417,2.924,8.065,2.924c5.133,0,8.491-1.756,10.075-5.268c0.968-2.158,1.453-6.234,1.453-12.227v-47.315h9.521
				V639.377z"/>
			<path style="fill:#102A54;" d="M925.296,599.698c4.704,6.283,7.056,14.322,7.056,24.117c0,10.601-2.69,19.413-8.071,26.436
				c-6.315,8.249-15.321,12.372-27.016,12.372c-10.923,0-19.509-3.608-25.76-10.826c-5.575-6.96-8.361-15.756-8.361-26.388
				c0-9.601,2.384-17.817,7.153-24.648c6.121-8.764,15.175-13.146,27.161-13.146C909.991,587.616,919.271,591.644,925.296,599.698z
				 M916.814,644.951c3.786-6.078,5.679-13.068,5.679-20.968c0-8.352-2.183-15.075-6.549-20.17
				c-4.366-5.095-10.335-7.643-17.906-7.643c-7.346,0-13.339,2.524-17.979,7.57c-4.639,5.047-6.959,12.487-6.959,22.322
				c0,7.869,1.989,14.503,5.969,19.904c3.979,5.402,10.431,8.102,19.356,8.102C906.899,654.069,913.028,651.031,916.814,644.951z"/>
			<path style="fill:#102A54;" d="M943.565,589.549h30.697c8.367,0,14.319,2.481,17.854,7.443c2.075,2.932,3.113,6.315,3.113,10.149
				c0,4.479-1.273,8.152-3.818,11.019c-1.322,1.515-3.222,2.9-5.703,4.156c3.641,1.386,6.363,2.948,8.168,4.688
				c3.19,3.093,4.784,7.363,4.784,12.807c0,4.576-1.443,8.716-4.328,12.421c-4.312,5.542-11.169,8.313-20.57,8.313h-30.199V589.549z
				 M970.668,619.562c4.102,0,7.293-0.563,9.572-1.692c3.581-1.772,5.372-4.961,5.372-9.569c0-4.64-1.905-7.764-5.713-9.376
				c-2.149-0.902-5.341-1.353-9.573-1.353H952.99v21.99H970.668z M973.919,652.329c5.952,0,10.196-1.707,12.733-5.123
				c1.594-2.158,2.391-4.768,2.391-7.83c0-5.155-2.326-8.667-6.977-10.536c-2.472-0.998-5.741-1.498-9.806-1.498h-19.27v24.987
				H973.919z"/>
		</g>
		<path style="fill:#102A54;" d="M1005.9,752.252c-1.421,0-2.774-0.652-3.688-1.845l-34.523-45.072H792.855
			c-7.107,0-12.889-5.782-12.889-12.889V544.123c0-7.107,5.782-12.889,12.889-12.889h226.362c7.107,0,12.889,5.782,12.889,12.889
			v148.322c0,7.107-5.782,12.889-12.889,12.889h-8.598v42.223c0,2.041-1.249,3.783-3.182,4.439
			C1006.928,752.168,1006.41,752.252,1005.9,752.252z M792.855,534.235c-5.453,0-9.889,4.436-9.889,9.889v148.322
			c0,5.453,4.436,9.889,9.889,9.889h176.315l35.424,46.248c0.682,0.89,1.611,0.662,1.88,0.572c0.269-0.091,1.145-0.476,1.145-1.597
			v-45.223h11.598c5.453,0,9.889-4.436,9.889-9.889V544.123c0-5.453-4.436-9.889-9.889-9.889H792.855z"/>
	</g>
	<g>
		<path style="fill:#3C94F8;" d="M1551.905,408.984h-226.362c-6.29,0-11.389-5.099-11.389-11.389V249.273
			c0-6.29,5.099-11.389,11.389-11.389h226.362c6.29,0,11.389,5.099,11.389,11.389v148.322
			C1563.293,403.885,1558.194,408.984,1551.905,408.984z"/>
		<g>
			<path style="fill:#102A54;" d="M1378.315,338.401c0,5.993-0.887,10.649-2.661,13.967c-3.291,6.058-9.549,9.086-18.774,9.086
				c-5.323,0-9.871-1.442-13.645-4.326c-3.774-2.883-5.662-8.014-5.662-15.393v-5.075h9.038v5.075c0,3.866,0.863,6.775,2.591,8.724
				c1.728,1.95,4.417,2.924,8.065,2.924c5.133,0,8.492-1.756,10.075-5.268c0.968-2.158,1.453-6.235,1.453-12.228v-47.315h9.521
				V338.401z"/>
			<path style="fill:#102A54;" d="M1451.39,298.723c4.704,6.283,7.056,14.322,7.056,24.117c0,10.601-2.69,19.413-8.071,26.436
				c-6.315,8.249-15.321,12.372-27.016,12.372c-10.923,0-19.509-3.608-25.76-10.826c-5.575-6.96-8.361-15.756-8.361-26.388
				c0-9.601,2.384-17.817,7.153-24.648c6.121-8.764,15.175-13.146,27.161-13.146C1436.085,286.64,1445.364,290.668,1451.39,298.723z
				 M1442.908,343.976c3.786-6.078,5.679-13.068,5.679-20.968c0-8.352-2.183-15.075-6.549-20.17
				c-4.366-5.095-10.335-7.643-17.906-7.643c-7.347,0-13.339,2.524-17.979,7.57c-4.639,5.047-6.959,12.487-6.959,22.322
				c0,7.869,1.989,14.503,5.969,19.904c3.979,5.402,10.431,8.102,19.356,8.102C1432.992,353.094,1439.121,350.055,1442.908,343.976z
				"/>
			<path style="fill:#102A54;" d="M1469.658,288.573h30.697c8.367,0,14.319,2.482,17.854,7.443
				c2.075,2.932,3.113,6.315,3.113,10.149c0,4.479-1.273,8.152-3.818,11.019c-1.322,1.515-3.222,2.9-5.703,4.156
				c3.641,1.386,6.363,2.948,8.168,4.688c3.189,3.093,4.784,7.363,4.784,12.807c0,4.576-1.443,8.716-4.328,12.421
				c-4.312,5.542-11.169,8.313-20.57,8.313h-30.199V288.573z M1496.762,318.586c4.102,0,7.293-0.563,9.572-1.691
				c3.581-1.772,5.372-4.961,5.372-9.569c0-4.64-1.905-7.764-5.713-9.376c-2.149-0.902-5.341-1.353-9.573-1.353h-17.337v21.99
				H1496.762z M1500.012,351.354c5.952,0,10.196-1.707,12.733-5.123c1.594-2.158,2.391-4.768,2.391-7.829
				c0-5.155-2.326-8.667-6.977-10.536c-2.472-0.998-5.741-1.498-9.807-1.498h-19.27v24.987H1500.012z"/>
		</g>
		<path style="fill:#102A54;" d="M1531.993,451.276c-1.421,0-2.773-0.652-3.687-1.845l-34.523-45.072h-174.834
			c-7.107,0-12.889-5.782-12.889-12.889V243.148c0-7.107,5.782-12.889,12.889-12.889h226.362c7.107,0,12.889,5.782,12.889,12.889
			V391.47c0,7.107-5.782,12.889-12.889,12.889h-8.598v42.223c0,2.041-1.249,3.783-3.182,4.438
			C1533.021,451.192,1532.502,451.276,1531.993,451.276z M1318.949,233.26c-5.453,0-9.889,4.436-9.889,9.889V391.47
			c0,5.453,4.436,9.889,9.889,9.889h176.315l35.424,46.248c0.681,0.891,1.611,0.662,1.88,0.572c0.269-0.091,1.145-0.476,1.145-1.597
			v-45.223h11.598c5.453,0,9.889-4.436,9.889-9.889V243.148c0-5.453-4.436-9.889-9.889-9.889H1318.949z"/>
	</g>
	<g>
		<path style="fill:#3C94F8;" d="M2042.163,503.592h226.362c6.29,0,11.389-5.099,11.389-11.389V343.881
			c0-6.29-5.099-11.389-11.389-11.389h-226.362c-6.29,0-11.389,5.099-11.389,11.389v148.322
			C2030.775,498.493,2035.874,503.592,2042.163,503.592z"/>
		<g>
			<path style="fill:#102A54;" d="M2110.056,433.009c0,5.993-0.887,10.649-2.661,13.967c-3.291,6.058-9.549,9.086-18.774,9.086
				c-5.323,0-9.871-1.442-13.645-4.326c-3.774-2.883-5.662-8.014-5.662-15.393v-5.075h9.038v5.075c0,3.866,0.863,6.775,2.591,8.724
				c1.728,1.95,4.417,2.924,8.065,2.924c5.133,0,8.491-1.756,10.075-5.268c0.968-2.158,1.453-6.234,1.453-12.227v-47.315h9.521
				V433.009z"/>
			<path style="fill:#102A54;" d="M2183.131,393.331c4.704,6.283,7.056,14.322,7.056,24.117c0,10.601-2.69,19.413-8.071,26.436
				c-6.315,8.249-15.321,12.372-27.016,12.372c-10.923,0-19.509-3.608-25.76-10.826c-5.575-6.96-8.361-15.756-8.361-26.388
				c0-9.601,2.384-17.817,7.153-24.648c6.121-8.764,15.175-13.146,27.161-13.146
				C2167.826,381.248,2177.105,385.276,2183.131,393.331z M2174.649,438.584c3.786-6.078,5.679-13.068,5.679-20.968
				c0-8.352-2.183-15.075-6.549-20.17c-4.366-5.095-10.335-7.643-17.906-7.643c-7.346,0-13.339,2.524-17.979,7.57
				c-4.639,5.047-6.959,12.487-6.959,22.322c0,7.869,1.989,14.504,5.969,19.904c3.979,5.402,10.431,8.102,19.356,8.102
				C2164.733,447.702,2170.863,444.663,2174.649,438.584z"/>
			<path style="fill:#102A54;" d="M2201.399,383.181h30.697c8.367,0,14.319,2.481,17.854,7.443
				c2.075,2.932,3.113,6.315,3.113,10.149c0,4.479-1.273,8.152-3.818,11.019c-1.322,1.515-3.222,2.9-5.703,4.156
				c3.641,1.386,6.363,2.948,8.168,4.688c3.19,3.093,4.784,7.363,4.784,12.807c0,4.576-1.443,8.716-4.327,12.421
				c-4.312,5.542-11.169,8.313-20.57,8.313h-30.199V383.181z M2228.503,413.194c4.102,0,7.293-0.563,9.572-1.692
				c3.581-1.772,5.373-4.961,5.373-9.569c0-4.64-1.905-7.764-5.714-9.376c-2.149-0.902-5.341-1.353-9.573-1.353h-17.336v21.99
				H2228.503z M2231.754,445.962c5.952,0,10.197-1.707,12.733-5.123c1.594-2.158,2.391-4.768,2.391-7.829
				c0-5.155-2.326-8.667-6.977-10.536c-2.472-0.998-5.74-1.498-9.806-1.498h-19.27v24.987H2231.754z"/>
		</g>
		<path style="fill:#102A54;" d="M2062.075,545.884c-0.51,0-1.028-0.084-1.538-0.257c-1.933-0.655-3.182-2.397-3.182-4.438v-42.223
			h-8.599c-7.106,0-12.889-5.782-12.889-12.889V337.756c0-7.107,5.782-12.889,12.889-12.889h226.362
			c7.106,0,12.889,5.782,12.889,12.889v148.322c0,7.107-5.782,12.889-12.889,12.889h-174.834l-34.523,45.073
			C2064.849,545.232,2063.496,545.884,2062.075,545.884z M2048.757,327.867c-5.452,0-9.889,4.436-9.889,9.889v148.322
			c0,5.453,4.437,9.889,9.889,9.889h11.599v45.223c0,1.121,0.876,1.506,1.145,1.597c0.268,0.092,1.197,0.32,1.881-0.571
			l35.424-46.248h176.314c5.453,0,9.889-4.436,9.889-9.889V337.756c0-5.453-4.436-9.889-9.889-9.889H2048.757z"/>
	</g>
	<g>
		<g>
			<path style="fill:#102A54;" d="M1644.119,1214.879c36.574-63.211,46.343-136.881,27.509-207.439
				c-18.835-70.559-64.02-129.559-127.231-166.133c-63.211-36.574-136.881-46.344-207.44-27.509
				c-70.558,18.835-129.559,64.02-166.133,127.231s-46.343,136.881-27.509,207.44c15.449,57.873,48.635,107.959,94.943,144.284
				c-4.624,0.261-9.031,2.765-11.524,7.073l-197.187,340.797c-3.935,6.8-1.612,15.502,5.188,19.437l53.83,31.147
				c6.8,3.935,15.503,1.612,19.437-5.188l197.187-340.797c2.493-4.308,2.467-9.377,0.389-13.516
				c54.571,22.045,114.533,25.855,172.406,10.406C1548.544,1323.274,1607.545,1278.09,1644.119,1214.879z M1289.076,1282.576
				c-54.657-31.625-93.726-82.64-110.012-143.651c-16.286-61.009-7.839-124.71,23.786-179.367
				c31.624-54.656,82.641-93.726,143.65-110.012c61.01-16.286,124.71-7.839,179.367,23.786
				c54.657,31.625,93.726,82.64,110.013,143.651c16.286,61.009,7.839,124.71-23.786,179.366
				c-31.625,54.657-82.641,93.727-143.65,110.013C1407.433,1322.648,1343.733,1314.2,1289.076,1282.576z"/>
			
				<ellipse transform="matrix(0.7071 -0.7071 0.7071 0.7071 -356.4477 1310.1016)" style="fill:#FFFFFF;" cx="1403.209" cy="1085.321" rx="231.988" ry="231.988"/>
			<g>
				<defs>
					
						<ellipse id="XMLID_40_" transform="matrix(0.7071 -0.7071 0.7071 0.7071 -356.4477 1310.1016)" cx="1403.209" cy="1085.321" rx="231.988" ry="231.988"/>
				</defs>
				<use xlink:href="#XMLID_40_"  style="overflow:visible;opacity:0.61;fill:#CCE6FF;"/>
				<clipPath id="XMLID_00000031888219311571962690000008757281365017068945_">
					<use xlink:href="#XMLID_40_"  style="overflow:visible;opacity:0.61;"/>
				</clipPath>
				
					<polygon style="opacity:0.26;clip-path:url(#XMLID_00000031888219311571962690000008757281365017068945_);fill:#3C94F8;" points="
					1514.948,855.263 1126.205,1018.144 1132.397,1130.399 1614.539,941.378 				"/>
				
					<polygon style="opacity:0.18;clip-path:url(#XMLID_00000031888219311571962690000008757281365017068945_);fill:#3C94F8;" points="
					1679.493,956.342 1158.235,1165.063 1205.076,1259.52 1715.639,1059.357 				"/>
				
					<polygon style="opacity:0.1;clip-path:url(#XMLID_00000031888219311571962690000008757281365017068945_);fill:#3C94F8;" points="
					1721.258,1089.907 1200,1298.627 1243.097,1348.207 1743.123,1152.221 				"/>
			</g>
		</g>
		<path style="opacity:0.14;fill:#3C94F8;" d="M1666.263,1238.872c36.574-63.211,46.343-136.881,27.509-207.439
			c-18.835-70.559-64.02-129.559-127.231-166.133c-63.211-36.574-136.881-46.344-207.44-27.508
			c-70.558,18.835-129.559,64.02-166.133,127.231c-36.574,63.211-46.343,136.881-27.509,207.44
			c15.449,57.873,48.635,107.959,94.943,144.284c-4.624,0.261-9.031,2.765-11.524,7.073l-197.187,340.797
			c-3.935,6.8-1.612,15.502,5.188,19.437l53.83,31.147c6.8,3.935,15.503,1.612,19.437-5.188l197.187-340.797
			c2.493-4.308,2.467-9.377,0.389-13.516c54.571,22.045,114.533,25.855,172.406,10.406
			C1570.688,1347.268,1629.688,1302.083,1666.263,1238.872z M1311.22,1306.569c-54.657-31.625-93.726-82.64-110.012-143.651
			c-16.286-61.009-7.839-124.71,23.786-179.367c31.625-54.656,82.641-93.726,143.65-110.012
			c61.01-16.286,124.71-7.839,179.367,23.786c54.657,31.625,93.726,82.64,110.012,143.651
			c16.286,61.009,7.839,124.71-23.786,179.366c-31.625,54.657-82.641,93.727-143.65,110.013
			C1429.577,1346.641,1365.877,1338.194,1311.22,1306.569z"/>
	</g>
	<g>
		<g>
			<path style="fill:#F4F7FD;" d="M2584.236,875.927h-774.423c-54.111,0-97.976-43.866-97.976-97.976v0
				c0-54.111,43.866-97.976,97.976-97.976h774.423c54.111,0,97.977,43.865,97.977,97.976v0
				C2682.212,832.061,2638.347,875.927,2584.236,875.927z"/>
			<path style="fill:#102A54;" d="M2570.561,874.442h-774.423c-55.679,0-100.977-45.298-100.977-100.977
				c0-55.679,45.298-100.977,100.977-100.977h774.423c55.679,0,100.977,45.298,100.977,100.977
				C2671.537,829.144,2626.239,874.442,2570.561,874.442z M1796.138,678.489c-52.37,0-94.977,42.606-94.977,94.977
				c0,52.37,42.606,94.977,94.977,94.977h774.423c52.37,0,94.977-42.607,94.977-94.977c0-52.37-42.606-94.977-94.977-94.977
				H1796.138z"/>
		</g>
		<g>
			<path style="fill:#102A54;" d="M1812.453,779.409h-9.367c-2.947,0-5.336-2.389-5.336-5.336v-9.367
				c0-2.947,2.389-5.336,5.336-5.336h9.367c2.947,0,5.336,2.389,5.336,5.336v9.367C1817.789,777.02,1815.4,779.409,1812.453,779.409
				z"/>
			<path style="fill:#102A54;" d="M1847.588,779.409h-9.367c-2.947,0-5.336-2.389-5.336-5.336v-9.367
				c0-2.947,2.389-5.336,5.336-5.336h9.367c2.947,0,5.336,2.389,5.336,5.336v9.367
				C1852.924,777.02,1850.535,779.409,1847.588,779.409z"/>
			<path style="fill:#102A54;" d="M1882.723,779.409h-9.367c-2.947,0-5.336-2.389-5.336-5.336v-9.367
				c0-2.947,2.389-5.336,5.336-5.336h9.367c2.947,0,5.336,2.389,5.336,5.336v9.367
				C1888.059,777.02,1885.67,779.409,1882.723,779.409z"/>
			<path style="fill:#102A54;" d="M1917.858,779.409h-9.367c-2.947,0-5.336-2.389-5.336-5.336v-9.367
				c0-2.947,2.389-5.336,5.336-5.336h9.367c2.947,0,5.336,2.389,5.336,5.336v9.367
				C1923.194,777.02,1920.805,779.409,1917.858,779.409z"/>
			<path style="fill:#102A54;" d="M1952.993,779.409h-9.367c-2.947,0-5.336-2.389-5.336-5.336v-9.367
				c0-2.947,2.389-5.336,5.336-5.336h9.367c2.947,0,5.336,2.389,5.336,5.336v9.367
				C1958.329,777.02,1955.94,779.409,1952.993,779.409z"/>
			<path style="fill:#102A54;" d="M1988.127,779.409h-9.367c-2.947,0-5.336-2.389-5.336-5.336v-9.367
				c0-2.947,2.389-5.336,5.336-5.336h9.367c2.947,0,5.336,2.389,5.336,5.336v9.367
				C1993.463,777.02,1991.074,779.409,1988.127,779.409z"/>
			<path style="fill:#102A54;" d="M2023.262,779.409h-9.367c-2.947,0-5.336-2.389-5.336-5.336v-9.367
				c0-2.947,2.389-5.336,5.336-5.336h9.367c2.947,0,5.336,2.389,5.336,5.336v9.367
				C2028.598,777.02,2026.209,779.409,2023.262,779.409z"/>
			<path style="fill:#102A54;" d="M2058.397,779.409h-9.367c-2.947,0-5.336-2.389-5.336-5.336v-9.367
				c0-2.947,2.389-5.336,5.336-5.336h9.367c2.947,0,5.336,2.389,5.336,5.336v9.367
				C2063.733,777.02,2061.344,779.409,2058.397,779.409z"/>
			<path style="fill:#102A54;" d="M2093.532,779.409h-9.367c-2.947,0-5.336-2.389-5.336-5.336v-9.367
				c0-2.947,2.389-5.336,5.336-5.336h9.367c2.947,0,5.336,2.389,5.336,5.336v9.367
				C2098.868,777.02,2096.479,779.409,2093.532,779.409z"/>
			<path style="fill:#102A54;" d="M2128.667,779.409h-9.367c-2.947,0-5.336-2.389-5.336-5.336v-9.367
				c0-2.947,2.389-5.336,5.336-5.336h9.367c2.947,0,5.336,2.389,5.336,5.336v9.367
				C2134.003,777.02,2131.614,779.409,2128.667,779.409z"/>
			<path style="fill:#102A54;" d="M2163.802,779.409h-9.367c-2.947,0-5.336-2.389-5.336-5.336v-9.367
				c0-2.947,2.389-5.336,5.336-5.336h9.367c2.947,0,5.336,2.389,5.336,5.336v9.367
				C2169.138,777.02,2166.749,779.409,2163.802,779.409z"/>
			<path style="fill:#102A54;" d="M2198.937,779.409h-9.367c-2.947,0-5.336-2.389-5.336-5.336v-9.367
				c0-2.947,2.389-5.336,5.336-5.336h9.367c2.947,0,5.336,2.389,5.336,5.336v9.367
				C2204.272,777.02,2201.883,779.409,2198.937,779.409z"/>
			<path style="fill:#102A54;" d="M2234.071,779.409h-9.367c-2.947,0-5.336-2.389-5.336-5.336v-9.367
				c0-2.947,2.389-5.336,5.336-5.336h9.367c2.947,0,5.336,2.389,5.336,5.336v9.367
				C2239.407,777.02,2237.018,779.409,2234.071,779.409z"/>
			<path style="fill:#102A54;" d="M2269.206,779.409h-9.367c-2.947,0-5.336-2.389-5.336-5.336v-9.367
				c0-2.947,2.389-5.336,5.336-5.336h9.367c2.947,0,5.336,2.389,5.336,5.336v9.367
				C2274.542,777.02,2272.153,779.409,2269.206,779.409z"/>
			<path style="fill:#102A54;" d="M2304.341,779.409h-9.367c-2.947,0-5.336-2.389-5.336-5.336v-9.367
				c0-2.947,2.389-5.336,5.336-5.336h9.367c2.947,0,5.336,2.389,5.336,5.336v9.367
				C2309.677,777.02,2307.288,779.409,2304.341,779.409z"/>
			<path style="fill:#102A54;" d="M2339.476,779.409h-9.367c-2.947,0-5.336-2.389-5.336-5.336v-9.367
				c0-2.947,2.389-5.336,5.336-5.336h9.367c2.947,0,5.336,2.389,5.336,5.336v9.367
				C2344.812,777.02,2342.423,779.409,2339.476,779.409z"/>
			<path style="fill:#102A54;" d="M2374.611,779.409h-9.367c-2.947,0-5.336-2.389-5.336-5.336v-9.367
				c0-2.947,2.389-5.336,5.336-5.336h9.367c2.947,0,5.336,2.389,5.336,5.336v9.367
				C2379.947,777.02,2377.558,779.409,2374.611,779.409z"/>
			<path style="fill:#102A54;" d="M2409.746,779.409h-9.367c-2.947,0-5.336-2.389-5.336-5.336v-9.367
				c0-2.947,2.389-5.336,5.336-5.336h9.367c2.947,0,5.336,2.389,5.336,5.336v9.367
				C2415.082,777.02,2412.692,779.409,2409.746,779.409z"/>
			<path style="fill:#102A54;" d="M2444.88,779.409h-9.367c-2.947,0-5.336-2.389-5.336-5.336v-9.367
				c0-2.947,2.389-5.336,5.336-5.336h9.367c2.947,0,5.336,2.389,5.336,5.336v9.367
				C2450.216,777.02,2447.827,779.409,2444.88,779.409z"/>
			<path style="fill:#102A54;" d="M2480.015,779.409h-9.367c-2.947,0-5.336-2.389-5.336-5.336v-9.367
				c0-2.947,2.389-5.336,5.336-5.336h9.367c2.947,0,5.336,2.389,5.336,5.336v9.367
				C2485.351,777.02,2482.962,779.409,2480.015,779.409z"/>
			<path style="fill:#102A54;" d="M2515.15,779.409h-9.367c-2.947,0-5.336-2.389-5.336-5.336v-9.367
				c0-2.947,2.389-5.336,5.336-5.336h9.367c2.947,0,5.336,2.389,5.336,5.336v9.367
				C2520.486,777.02,2518.097,779.409,2515.15,779.409z"/>
			<path style="fill:#102A54;" d="M2550.285,779.409h-9.367c-2.947,0-5.336-2.389-5.336-5.336v-9.367
				c0-2.947,2.389-5.336,5.336-5.336h9.367c2.947,0,5.336,2.389,5.336,5.336v9.367
				C2555.621,777.02,2553.232,779.409,2550.285,779.409z"/>
			<path style="fill:#102A54;" d="M2585.42,779.409h-9.367c-2.947,0-5.336-2.389-5.336-5.336v-9.367
				c0-2.947,2.389-5.336,5.336-5.336h9.367c2.947,0,5.336,2.389,5.336,5.336v9.367
				C2590.756,777.02,2588.367,779.409,2585.42,779.409z"/>
		</g>
	</g>
	<g>
		<path style="fill:#102A54;" d="M762.803,1721.989h-21.629h-55.894c-3.464,0-5.949,3.338-4.955,6.656l33.914,113.266
			c0.656,2.189,2.67,3.689,4.955,3.689h21.98h21.629h21.98c2.285,0,4.3-1.5,4.955-3.689l33.914-113.266
			c0.994-3.318-1.492-6.656-4.955-6.656H762.803z"/>
		<g>
			<path style="fill:#6CB597;" d="M806.622,1666.794c2.135-5.633,4.894-11.259,9.507-15.133c4.613-3.874,11.472-5.593,16.802-2.785
				c3.917,2.064,7.976,6.429,11.843,4.273c2.406-1.342,2.939-4.521,3.103-7.271c0.536-8.967,0.423-19.073,6.815-25.385
				c6.296-6.218,16.486-6.092,25.061-3.905c4.045,1.032,8.521,2.386,12.206,0.424c1.971-1.05,3.374-2.911,4.539-4.816
				c4.108-6.714,6.718-15.315,13.906-18.521c11.566-5.159,25.055,7.891,36.95,3.546c4.655-1.7,8.636-5.983,13.569-5.515
				c2.438,0.232,4.63,1.655,6.32,3.426c5.739,6.01,5.797,16.563,0.085,22.598c-7.592,8.02-21.524,6.901-29.202,14.839
				c-7.376,7.626-6.768,21.462-15.768,27.079c-7.583,4.733-17.813,0.851-26.238,3.836c-6.759,2.394-11.172,8.714-15.549,14.393
				c-4.377,5.679-9.942,11.465-17.099,11.909c-3.758,0.233-7.498-1.078-11.247-0.736c-10.787,0.985-16.798,14.619-27.508,16.235
				c-7.188,1.084-13.343-3.704-18.319-8.268c-1.975-1.812-3.821-3.86-4.534-6.508c-0.856-3.183-0.143-6.633,0.563-9.769
				C803.493,1676.001,804.901,1671.337,806.622,1666.794z"/>
			<path style="fill:#6CB597;" d="M729.263,1644.441c-5.875-4.368-9.437-12.791-5.963-19.235c1.692-3.139,4.71-5.305,7.093-7.957
				c2.384-2.653,4.206-6.448,2.795-9.723c-0.699-1.622-2.08-2.833-3.415-3.99c-4.815-4.17-9.695-8.504-12.726-14.107
				c-3.03-5.602-3.886-12.813-0.534-18.229c2.53-4.088,6.954-6.52,10.794-9.412c3.84-2.892,7.484-7.022,7.164-11.819
				c-0.398-5.98-6.847-11.419-4.451-16.913c2.483-5.69,12.399-5.378,14.021-11.37c0.806-2.979-0.99-5.961-1.73-8.957
				c-1.647-6.675,2.871-14.25,9.527-15.973c6.656-1.723,14.282,2.709,16.08,9.345c1.245,4.594-0.018,9.699,1.801,14.097
				c2.36,5.707,9.119,8.437,12.081,13.857c5.448,9.971-4.45,21.78-3.619,33.111c0.878,11.982,13.679,22.177,10.38,33.729
				c-1.292,4.525-4.927,8.104-6.186,12.638c-1.501,5.407,0.607,11.063,2.116,16.468c1.509,5.405,2.229,11.808-1.396,16.092
				c-2.683,3.171-7.045,4.285-11.15,4.924c-11.378,1.773-22.685,1.255-33.693-2.191
				C735.056,1647.826,731.96,1646.446,729.263,1644.441z"/>
			<path style="fill:#102A54;" d="M751.729,1750.475c-0.262,0-0.526-0.07-0.765-0.219c-0.68-0.424-0.888-1.318-0.465-1.998
				c10.449-16.782,23.415-31.751,38.538-44.49c16.662-14.034,35.72-25.115,54.151-35.831l125.172-72.783
				c0.692-0.405,1.58-0.168,1.983,0.524c0.403,0.693,0.167,1.581-0.525,1.983l-125.172,72.783
				c-18.324,10.653-37.271,21.67-53.74,35.542c-14.89,12.543-27.657,27.28-37.944,43.805
				C752.688,1750.232,752.214,1750.475,751.729,1750.475z"/>
			<path style="fill:#102A54;" d="M755.748,1744.297c-0.781,0-1.426-0.621-1.449-1.407c-2.143-72.792-0.543-172.72,1.176-243.73
				c0.02-0.801,0.67-1.429,1.485-1.415c0.801,0.02,1.434,0.685,1.415,1.485c-1.719,70.976-3.318,170.847-1.177,243.574
				c0.024,0.801-0.606,1.469-1.407,1.493C755.778,1744.297,755.763,1744.297,755.748,1744.297z"/>
			<g>
				<path style="fill:#6CB597;" d="M683.572,1705.041c-8.452-0.914-17.028-6.515-18.547-14.879
					c-1.212-6.674,1.52-15.263-4.019-19.179c-1.944-1.374-4.436-1.664-6.814-1.777c-8.597-0.408-18.023,0.717-25.046-4.256
					c-10.22-7.237-9.198-22.249-10.03-34.744c-0.213-3.207-0.75-6.674-3.07-8.899c-2.477-2.376-6.216-2.638-9.564-3.395
					c-12.201-2.758-21.73-14.555-21.86-27.063c-0.04-3.823,0.805-7.842,3.35-10.695c1.731-1.94,4.123-3.194,6.609-3.958
					c7.927-2.435,17.175,0.213,22.612,6.474c3.396,3.911,5.351,9.002,9.179,12.492c10.818,9.865,28.594,1.762,42.508,6.314
					c7.783,2.546,14.004,9.39,15.797,17.38c1.556,6.932,0.048,14.64,3.438,20.883c5.824,10.723,21.097,10.117,32.351,14.833
					c2.707,1.134,5.36,2.739,6.893,5.242c1.186,1.937,1.6,4.245,1.787,6.509c0.757,9.147-2.137,18.436-7.557,25.796
					c-2.429,3.298-5.673,7.119-9.513,8.798c-2.915,1.274-6.344,0.812-9.412,1.552
					C696.304,1704.002,690.202,1705.758,683.572,1705.041z"/>
				<path style="fill:#102A54;" d="M748.091,1752.557c-0.518,0-1.019-0.278-1.281-0.768
					c-20.024-37.451-63.371-86.914-84.202-110.685c-6.244-7.125-12.701-14.493-20.222-20.437
					c-6.184-4.886-13.313-8.998-20.208-12.976c-12.65-7.297-25.732-14.842-33.508-27.473c-0.42-0.683-0.208-1.576,0.475-1.996
					c0.682-0.419,1.575-0.207,1.995,0.475c7.392,12.006,19.582,19.037,32.487,26.481c6.985,4.029,14.208,8.195,20.558,13.213
					c7.729,6.107,14.275,13.576,20.605,20.8c20.902,23.853,64.397,73.484,84.579,111.229c0.377,0.706,0.111,1.585-0.595,1.963
					C748.556,1752.501,748.321,1752.557,748.091,1752.557z"/>
			</g>
		</g>
	</g>
	<g>
		<g>
			<path style="fill:#3C94F8;" d="M2510.968,1039.318c0,0-65.88,123.501-76.455,133.461c-10.575,9.96-159.865,51.05-159.865,51.05
				l5.896,21.631c0,0,184.927,4.29,194.345,0c9.417-4.29,63.704-52.479,63.704-52.479L2510.968,1039.318z"/>
			<g>
				<polygon style="fill:#FFC0B1;" points="2419.991,1780.145 2424.505,1807.278 2458.839,1807.278 2456.86,1776.203 				"/>
				<polygon style="fill:#FFC0B1;" points="2296.514,1774.671 2298.397,1811.623 2329.038,1809.256 2333.592,1774.946 				"/>
				<path style="fill:#0C203F;" d="M2561.988,1328.004c0,0-218.043,72.99-250.544,105.492
					c-32.502,32.502-19.587,342.464-19.587,342.464h46.633l65.654-255.062c0,0,264.279-5.871,292.844-56.052
					c37.683-66.2,8.911-152.387,8.911-152.387L2561.988,1328.004z"/>
				<path style="fill:#102A54;" d="M2575.363,1345.186c0,0-181.324,105.608-204.348,140.671
					c-23.024,35.063,45.641,294.645,45.641,294.645l42.475-4.542l10.909-229.169c0,0,235.073-54.193,251.304-104.326
					c21.413-66.136-20.26-137.823-20.26-137.823L2575.363,1345.186z"/>
				<path style="fill:#0C203F;" d="M2334.165,1802.08c0,0-27.76,7.711-40.611,0l-55.606,29.045
					c-7.53,3.933-12.251,11.725-12.251,20.22v0.599h109.412c3.299,0,5.831-2.924,5.36-6.189L2334.165,1802.08z"/>
				<path style="fill:#102A54;" d="M2460.355,1802.08c0,0-27.76,7.711-40.611,0l-55.606,29.045
					c-7.53,3.933-12.251,11.725-12.251,20.22v0.599h109.412c3.299,0,5.831-2.924,5.36-6.189L2460.355,1802.08z"/>
			</g>
			<g>
				<path style="fill:#FFC0B1;" d="M2564.427,1006.3l-20.935-85.298l-0.003,0.005c-0.029-16.082-3.176-35.304-11.179-57.84
					c-5.302-14.93-22.328-22.05-36.733-15.453l-40.59,18.59c-11.052,5.062-16.971,17.253-14.084,29.061
					c3.421,13.995,7.499,32.224,8.803,44.419c1.139,10.654,4.084,23.069,11.112,32.297c12.294,16.146,33.95,21.632,51.774,13.46
					l5.059,55.349L2564.427,1006.3z"/>
				<path style="fill:#102A54;" d="M2464.099,934.438c-1.284,0-2.518-0.479-3.482-1.374c-1.188-1.102-1.78-2.659-1.622-4.272
					l3.233-33.133c0.063-0.641,0.638-1.112,1.275-1.049c0.642,0.063,1.111,0.634,1.049,1.275l-3.233,33.133
					c-0.086,0.881,0.237,1.731,0.886,2.333c0.648,0.602,1.523,0.859,2.394,0.707l10.091-1.763c0.643-0.108,1.241,0.315,1.352,0.949
					c0.111,0.636-0.314,1.241-0.949,1.352L2465,934.359C2464.698,934.412,2464.397,934.438,2464.099,934.438z"/>
				<g>
					<path style="fill:#FFFFFF;" d="M2488.737,934.367c0,0-12.327,11.228-28.102,15.214
						C2460.635,949.58,2483.544,963.565,2488.737,934.367z"/>
					<path style="fill:#102A54;" d="M2469.418,947.72c-0.459,0-0.894-0.272-1.08-0.723c-0.245-0.597,0.039-1.279,0.635-1.525
						c12.303-5.071,19.725-13.457,19.798-13.541c0.426-0.484,1.163-0.535,1.647-0.111c0.486,0.424,0.536,1.161,0.112,1.647
						c-0.313,0.36-7.833,8.874-20.667,14.164C2469.718,947.691,2469.566,947.72,2469.418,947.72z"/>
				</g>
				<path style="fill:#102A54;" d="M2455.646,902.014c0,2.778-1.814,5.03-4.052,5.03c-2.238,0-4.052-2.252-4.052-5.03
					c0-2.778,1.814-5.03,4.052-5.03C2453.831,896.984,2455.646,899.236,2455.646,902.014z"/>
				<ellipse style="fill:#102A54;" cx="2478.738" cy="893.764" rx="4.052" ry="5.03"/>
				<path style="fill:#102A54;" d="M2440.176,883.778c0,0,44.861,3.759,64.489-11.276c0,0,0.417,29.828,7.517,34.543
					c7.1,4.714,28.872-0.08,35.66,30.059c0,0,11.949-32.862,6.52-71.284c-5.429-38.422-29.652-56.797-53.039-54.709
					C2477.937,813.199,2391.684,845.245,2440.176,883.778z"/>
				<g>
					
						<ellipse transform="matrix(0.2327 -0.9726 0.9726 0.2327 1065.1835 3144.0464)" style="fill:#FFC0B1;" cx="2525.07" cy="896.984" rx="20.851" ry="12.229"/>
					<path style="fill:#102A54;" d="M2519.603,905.579c-0.619,0-1.136-0.487-1.165-1.112c-0.634-13.213,9.935-24.025,10.385-24.479
						c0.454-0.457,1.192-0.461,1.65-0.007c0.458,0.454,0.462,1.193,0.008,1.651c-0.103,0.104-10.294,10.551-9.711,22.723
						c0.031,0.645-0.466,1.192-1.11,1.223C2519.641,905.579,2519.621,905.579,2519.603,905.579z"/>
				</g>
			</g>
			<g>
				<path style="fill:#3C94F8;" d="M2564.46,993.643c0,0,129.924,54.816,153.666,337.875c0,0-56.01,33.962-193.056,14.241
					c0,0,3.673-30.574,2.39-43.137c-1.283-12.563-42.005-204.504-16.492-263.304L2564.46,993.643z"/>
			</g>
			<path style="fill:#102A54;" d="M2512.593,986.709c-0.456,0-0.889-0.268-1.077-0.714c-0.25-0.594,0.028-1.278,0.621-1.529
				c0.185-0.08,13.119-5.829,20.543-26.04c0.223-0.605,0.894-0.916,1.499-0.693c0.605,0.222,0.916,0.894,0.694,1.499
				c-7.815,21.273-21.259,27.146-21.828,27.386C2512.897,986.68,2512.743,986.709,2512.593,986.709z"/>
			<path style="fill:#3C94F8;" d="M2561.117,1059.645c0,0-40.821,104.452-52.917,120.379
				c-12.096,15.927-196.563,45.914-196.563,45.914l10.905,29.987c0,0,189.191,10.904,212.273,0
				c23.082-10.905,74.878-48.161,89.417-100.866C2638.77,1102.354,2607.048,1036.019,2561.117,1059.645z"/>
			<path style="fill:#102A54;" d="M2469.038,1261.959c-61.058,0-141.478-4.574-146.564-4.867c-0.644-0.037-1.136-0.589-1.099-1.233
				s0.563-1.13,1.233-1.099c1.888,0.109,189.155,10.763,211.706,0.11c19.563-9.242,73.652-45.246,88.791-100.121
				c0.171-0.622,0.822-0.985,1.437-0.815c0.622,0.172,0.986,0.814,0.815,1.437c-15.373,55.723-70.212,92.242-90.045,101.611
				C2527.405,1260.718,2500.848,1261.959,2469.038,1261.959z"/>
			<path style="fill:#102A54;" d="M2311.636,1227.106c-0.563,0-1.059-0.407-1.151-0.98c-0.104-0.637,0.328-1.236,0.965-1.34
				c63.644-10.347,186.476-33.164,195.821-45.469c11.859-15.616,52.352-119.054,52.759-120.097c0.236-0.601,0.914-0.898,1.513-0.663
				c0.601,0.235,0.897,0.912,0.663,1.513c-1.669,4.271-41.02,104.785-53.075,120.659c-12.238,16.114-189.755,45.134-197.306,46.361
				C2311.761,1227.102,2311.697,1227.106,2311.636,1227.106z"/>
			<path style="fill:#102A54;" d="M2512.591,1174.004c-0.619,0-1.136-0.487-1.166-1.112c-0.038-0.818-3.856-82.18,0.008-113.39
				c0.08-0.64,0.662-1.089,1.303-1.016c0.64,0.079,1.095,0.662,1.016,1.303c-3.84,31.013-0.031,112.175,0.008,112.991
				c0.03,0.645-0.467,1.191-1.111,1.223C2512.629,1174.003,2512.609,1174.004,2512.591,1174.004z"/>
			<g>
				<path style="fill:#FFC0B1;" d="M2315.053,1230.97c0,0-22.278-5.162-31.974-1.352c-3.498,1.374-42.792,33.088-42.792,33.088
					h9.058h48.996l22.462-11.562L2315.053,1230.97z"/>
				<path style="fill:#FFC0B1;" d="M2275.844,1228.216c0,0-18.549-1.398-24.575,0c-6.025,1.398-36.876,15.497-36.876,17.245
					c0,1.747,3.133,4.157,7.23,3.193c4.097-0.964,38.804-10.42,38.804-10.42s-19.764,9.697-22.656,13.794
					c-2.892,4.097-5.544,10.677-5.544,10.677h36.394l11.922-17.245L2275.844,1228.216z"/>
				<path style="fill:#102A54;" d="M2241.813,1263.706c-0.099,0-0.199-0.015-0.299-0.046c-0.527-0.165-0.82-0.726-0.655-1.253
					c0.046-0.148,1.178-3.675,4.682-7.178c3.396-3.396,30.063-21.703,31.197-22.48c0.455-0.313,1.078-0.198,1.39,0.259
					c0.313,0.455,0.197,1.077-0.259,1.39c-0.275,0.189-27.648,18.979-30.914,22.246c-3.16,3.159-4.178,6.329-4.188,6.361
					C2242.634,1263.433,2242.239,1263.706,2241.813,1263.706z"/>
			</g>
		</g>
		<g>
			<g>
				<g>
					<polygon style="fill:#102A54;" points="2611.148,1534.936 2534.814,1851.945 2541.153,1851.945 2638.392,1533.236 					"/>
					<polygon style="fill:#102A54;" points="2718.382,1534.936 2794.717,1851.945 2788.378,1851.945 2691.138,1533.236 					"/>
					<path style="fill:#7FC0FF;" d="M2544.409,1522.072c0,0,112.079-56.424,165.473-140.819
						c28.008-44.27,31.282-160.045,54.4-161.823c23.118-1.778,44.457,35.565,51.57,76.466s7.113,198.059-44.457,226.176
						s-229.899,40.565-242.096,35.231S2513.034,1540.19,2544.409,1522.072z"/>
				</g>
				<g>
					<path style="fill:#7FC0FF;" d="M2593.544,1294.362h-792.98c-4.998,0-9.049-4.051-9.049-9.049l0,0
						c0-4.997,4.051-9.049,9.049-9.049h792.98c4.997,0,9.049,4.051,9.049,9.049l0,0
						C2602.593,1290.311,2598.542,1294.362,2593.544,1294.362z"/>
					<g>
						<polygon style="fill:#7FC0FF;" points="1846.998,1851.945 1832.991,1851.945 1940.823,1294.362 1954.83,1294.362 						"/>
						<polygon style="fill:#7FC0FF;" points="2547.111,1851.945 2561.117,1851.945 2453.285,1294.362 2439.278,1294.362 						"/>
					</g>
				</g>
			</g>
			<path style="fill:#102A54;" d="M2088.968,1262.706l-91.637-213.845c-0.945-2.205-3.113-3.635-5.512-3.635l0,0
				c-4.305,0-7.208,4.402-5.512,8.359l95.423,222.679h7.239h5.81h213.495c3.744,0,6.779-3.035,6.779-6.779l0,0
				c0-3.744-3.035-6.779-6.779-6.779H2088.968z"/>
		</g>
	</g>
	<path style="fill:#102A54;" d="M3243.269,1853.584H264.03c-2.21,0-4-1.791-4-4s1.79-4,4-4h2979.238c2.209,0,4,1.791,4,4
		S3245.478,1853.584,3243.269,1853.584z"/>
</g>
<g>
	<g>
		<path style="fill:#80C0FF;" d="M1509.417,1077.954c0-56.303-45.643-101.946-101.946-101.946s-101.945,45.643-101.945,101.946
			c0,30.568,13.458,57.99,34.767,76.675c1.86-29.358,22.523-53.606,50.09-60.818c-12.699-6.298-21.434-19.389-21.434-34.525
			c0-21.275,17.247-38.523,38.522-38.523s38.523,17.247,38.523,38.523c0,15.137-8.734,28.227-21.434,34.525
			c27.567,7.212,48.23,31.459,50.091,60.818C1495.959,1135.944,1509.417,1108.522,1509.417,1077.954z"/>
		<path style="fill:#3C94F8;" d="M1424.559,1093.811c12.7-6.298,21.434-19.389,21.434-34.525c0-21.275-17.247-38.523-38.523-38.523
			s-38.522,17.247-38.522,38.523c0,15.137,8.734,28.227,21.434,34.525c-27.567,7.212-48.23,31.46-50.09,60.818
			c17.94,15.731,41.444,25.271,67.179,25.271c25.735,0,49.239-9.54,67.179-25.271
			C1472.79,1125.27,1452.126,1101.023,1424.559,1093.811z"/>
	</g>
</g>
<path style="fill:#80C0FF;" d="M2506.811,399.633c-19.408-2.298-37.003,11.573-39.301,30.98
	c2.298-19.408-11.573-37.003-30.98-39.301c-19.408-2.298-37.003,11.573-39.301,30.98c-0.265,2.242-0.306,4.458-0.156,6.63
	c0.75,58.671,60.863,82.566,60.863,82.566s64.031-9.198,78.46-66.072c0.653-2.078,1.131-4.242,1.396-6.484
	C2540.089,419.526,2526.219,401.93,2506.811,399.633z"/>
</svg>
