<?xml version="1.0" encoding="utf-8"?><svg version="1.1" id="Layer_1" xmlns="http://www.w3.org/2000/svg" xmlns:xlink="http://www.w3.org/1999/xlink" x="0px" y="0px" viewBox="0 0 121.44 83.51" style="enable-background:new 0 0 121.44 83.51" xml:space="preserve"><style type="text/css"><![CDATA[
	.st0{fill-rule:evenodd;clip-rule:evenodd;}
]]></style><g><path class="st0" d="M29.46,62.39c2.76,0,4.99,2.24,4.99,4.99c0,2.75-2.24,4.99-4.99,4.99c-2.75,0-4.99-2.24-4.99-4.99 C24.48,64.63,26.7,62.39,29.46,62.39L29.46,62.39L29.46,62.39z M83.9,23.83l1.79-0.05l1.49-0.04c-1.73-5.4-1.15-10.37,3.02-14.59 c0.71,2.32,2.29,4.23,4.99,5.64c1.29,0.97,2.54,2.15,3.75,3.49c0.22-0.89-0.6-1.98-1.59-3.1c0.92,0.46,1.76,1.1,2.36,2.34 c0.69,1.43,0.69,2.64,0.46,4.2c-0.11,0.72-0.28,1.4-0.53,2.02h2.47c2.6-5.65,0.95-14.02-4.37-17.58c-1.63-1.09-2.81-1.05-4.72-1.05 c-2.19,0-3.32,0.07-5.19,1.33c-2.77,1.86-4.47,5.07-5.19,9.53C82.46,18.2,82.37,22.04,83.9,23.83L83.9,23.83L83.9,23.83z M102.62,32.48c-1.01-2.05-2.29-3.8-3.78-5.43c2.81,1.1,5.67,2.19,7.8,3.54c1.35,0.86,2.05,1.5,2.6,2.55 c1.25,2.38,1.17,5.01,1.73,7.56h6.9c0.98,0,1.88,0.4,2.53,1.05c0.65,0.65,1.05,1.54,1.05,2.52v8.15c0,0.98-0.4,1.87-1.05,2.52 l-0.01,0.01c-0.65,0.65-1.54,1.05-2.52,1.05h0.53v24.8c0,0.75-0.3,1.42-0.8,1.91c-0.49,0.49-1.17,0.8-1.91,0.8H69.79 c-0.75,0-1.43-0.3-1.92-0.8c-0.05-0.05-0.09-0.09-0.13-0.15c-0.42-0.48-0.67-1.1-0.67-1.78V56h-0.31c-0.98,0-1.88-0.4-2.53-1.05 c-0.04-0.04-0.08-0.08-0.11-0.13c-0.58-0.62-0.93-1.46-0.93-2.38v-8.15c0-0.98,0.4-1.88,1.05-2.53c0.04-0.04,0.08-0.08,0.13-0.12 c0.63-0.58,1.48-0.93,2.39-0.93l8.18,0c0.57-2.55,0.48-5.19,1.74-7.57c0.55-1.04,1.25-1.69,2.6-2.55c2.13-1.35,4.99-2.44,7.8-3.54 c-1.49,1.64-2.77,3.38-3.78,5.43l2.93-0.07l6.73,5.93l6.73-5.93L102.62,32.48L102.62,32.48L102.62,32.48z M90.7,34.1l1.33-4.69 l-0.65-0.72c-0.29-0.43-0.36-0.82-0.19-1.14c0.35-0.71,1.09-0.58,1.77-0.58c0.72,0,1.6-0.14,1.83,0.77 c0.07,0.31-0.02,0.62-0.23,0.95l-0.65,0.72l1.33,4.69l-2.26,1.81L90.7,34.1L90.7,34.1L90.7,34.1z M22.97,27.45l3.4,10.01l1.71-5.94 l-0.84-0.92c-0.38-0.55-0.46-1.03-0.25-1.45c0.45-0.9,1.39-0.73,2.27-0.73c0.92,0,2.06-0.17,2.34,0.98c0.1,0.38-0.02,0.79-0.29,1.2 l-0.84,0.92l1.71,5.94l3.08-10.01c2.22,2,8.8,2.4,11.25,3.77c0.78,0.43,1.48,0.98,2.04,1.72c0.85,1.13,1.38,2.6,1.52,4.47 l0.51,3.26l0,0.02h4.07c0.98,0,1.88,0.4,2.52,1.05c0.65,0.65,1.05,1.54,1.05,2.53v8.15c0,0.98-0.4,1.87-1.05,2.52l-0.01,0.01 C56.53,55.6,55.64,56,54.66,56h0.53v24.8c0,0.75-0.3,1.42-0.8,1.91c-0.49,0.49-1.17,0.8-1.91,0.8H6.59c-0.75,0-1.43-0.3-1.92-0.8 c-0.05-0.05-0.09-0.09-0.13-0.15c-0.42-0.48-0.67-1.1-0.67-1.78V56H3.57c-0.98,0-1.88-0.4-2.53-1.05C1,54.9,0.97,54.86,0.93,54.82 C0.35,54.2,0,53.36,0,52.44v-8.15c0-0.98,0.4-1.88,1.05-2.53c0.04-0.04,0.08-0.08,0.13-0.12c0.64-0.58,1.48-0.93,2.39-0.93l4.08,0 l0-0.04l0.51-3.26c0.14-1.87,0.67-3.34,1.52-4.47c0.56-0.74,1.26-1.29,2.04-1.72C14.16,29.85,20.74,29.45,22.97,27.45L22.97,27.45 L22.97,27.45z M21.42,13.12c-0.42,0.02-0.74,0.1-0.96,0.25c-0.13,0.08-0.22,0.19-0.28,0.32C20.12,13.83,20.1,14,20.1,14.2 c0.02,0.58,0.32,1.33,0.91,2.21l0.01,0.01l0,0l1.9,3.03c0.76,1.21,1.56,2.45,2.55,3.36c0.95,0.87,2.11,1.46,3.65,1.47 c1.66,0,2.88-0.61,3.86-1.53c1.02-0.96,1.83-2.28,2.63-3.59l2.14-3.53c0.4-0.91,0.54-1.52,0.45-1.88 c-0.06-0.21-0.29-0.32-0.69-0.34c-0.08,0-0.17,0-0.26,0c-0.09,0-0.2,0.01-0.3,0.02c-0.06,0-0.11,0-0.16-0.01 c-0.19,0.01-0.39,0-0.59-0.03l0.73-3.25c-3.92-0.05-6.6-0.73-9.77-2.76c-1.04-0.66-1.36-1.43-2.4-1.35 c-0.79,0.15-1.45,0.5-1.97,1.07c-0.5,0.54-0.88,1.28-1.13,2.23l0.42,3.83C21.85,13.16,21.63,13.16,21.42,13.12L21.42,13.12 L21.42,13.12z M38.25,12.44c0.53,0.16,0.87,0.5,1,1.04c0.15,0.6-0.01,1.44-0.52,2.6l0,0c-0.01,0.02-0.02,0.04-0.03,0.06l-2.17,3.57 c-0.83,1.38-1.68,2.75-2.82,3.82c-1.17,1.1-2.62,1.83-4.59,1.82c-1.85,0-3.23-0.71-4.37-1.75c-1.1-1.01-1.94-2.31-2.74-3.58 L20.11,17c-0.7-1.04-1.06-1.98-1.08-2.76c-0.01-0.37,0.05-0.7,0.19-0.99c0.14-0.31,0.36-0.56,0.65-0.76 c0.14-0.09,0.29-0.17,0.46-0.23c-0.12-1.64-0.17-3.71-0.09-5.44c0.04-0.41,0.12-0.82,0.23-1.23c0.49-1.74,1.71-3.13,3.21-4.1 c0.53-0.34,1.12-0.62,1.73-0.84c3.65-1.33,8.5-0.6,11.09,2.2c1.06,1.14,1.72,2.66,1.86,4.66L38.25,12.44L38.25,12.44L38.25,12.44z M92.66,62.39c2.76,0,4.99,2.24,4.99,4.99c0,2.75-2.24,4.99-4.99,4.99c-2.75,0-4.99-2.24-4.99-4.99 C87.68,64.63,89.91,62.39,92.66,62.39L92.66,62.39L92.66,62.39z M66.77,44.07c-0.04,0-0.08,0.01-0.12,0.04l-0.03,0.03 c-0.04,0.04-0.06,0.09-0.06,0.15v8.15c0,0.06,0.02,0.11,0.06,0.15c0.04,0.04,0.09,0.06,0.15,0.06c17.03,0,34.06,0,51.09,0 c0.06,0,0.11-0.02,0.15-0.06s0.06-0.09,0.06-0.15v-8.16c0-0.06-0.02-0.11-0.06-0.15c-0.04-0.04-0.09-0.06-0.15-0.06 C99.9,44.07,84.71,44.07,66.77,44.07L66.77,44.07z M70.43,56v24.15h44.6V56.01L70.43,56L70.43,56L70.43,56z M3.57,44.07 c-0.04,0-0.08,0.01-0.12,0.04l-0.03,0.03c-0.03,0.04-0.06,0.09-0.06,0.15v8.15c0,0.06,0.02,0.11,0.06,0.15 c0.04,0.04,0.09,0.06,0.15,0.06c17.03,0,34.06,0,51.09,0c0.06,0,0.11-0.02,0.15-0.06c0.04-0.03,0.06-0.09,0.06-0.15v-8.16 c0-0.06-0.02-0.11-0.06-0.15c-0.04-0.04-0.09-0.06-0.15-0.06C36.7,44.07,21.51,44.07,3.57,44.07L3.57,44.07z M7.23,56v24.15h44.6 V56H7.23L7.23,56L7.23,56z"/></g></svg>