<?xml version="1.0" encoding="utf-8"?><svg version="1.1" id="Layer_1" xmlns="http://www.w3.org/2000/svg" xmlns:xlink="http://www.w3.org/1999/xlink" x="0px" y="0px" width="113.525px" height="122.879px" viewBox="0 0 113.525 122.879" enable-background="new 0 0 113.525 122.879" xml:space="preserve"><g><path d="M78.098,13.509l0.033,0.013h0.008c2.908,1.182,5.699,2.603,8.34,4.226c2.621,1.612,5.121,3.455,7.467,5.491 c11.992,10.408,19.58,25.764,19.58,42.879v0.016h-0.006c-0.006,15.668-6.361,29.861-16.633,40.127 c-10.256,10.256-24.434,16.605-40.09,16.613v0.006h-0.033h-0.015v-0.006c-15.666-0.004-29.855-6.357-40.123-16.627l-0.005,0.004 C6.365,95.994,0.015,81.814,0.006,66.15H0v-0.033v-0.039h0.006c0.004-6.898,1.239-13.511,3.492-19.615 c0.916-2.486,2.009-4.897,3.255-7.21C13.144,27.38,23.649,18.04,36.356,13.142l2.634-1.017v2.817v18.875v1.089l-0.947,0.569 l-0.007,0.004l-0.008,0.005l-0.007,0.004c-1.438,0.881-2.809,1.865-4.101,2.925l0.004,0.004c-1.304,1.079-2.532,2.242-3.659,3.477 h-0.007c-5.831,6.375-9.393,14.881-9.393,24.22v0.016h-0.007c0.002,9.9,4.028,18.877,10.527,25.375l-0.004,0.004 c6.492,6.488,15.457,10.506,25.349,10.512v-0.006h0.033h0.015v0.006c9.907-0.002,18.883-4.025,25.374-10.518 S92.66,76.045,92.668,66.148H92.66v-0.033V66.09h0.008c-0.002-6.295-1.633-12.221-4.484-17.362 c-0.451-0.811-0.953-1.634-1.496-2.453c-2.719-4.085-6.252-7.591-10.359-10.266l-0.885-0.577v-1.042V15.303v-2.857L78.098,13.509 L78.098,13.509z M47.509,0h18.507h1.938v1.937v49.969v1.937h-1.938H47.509h-1.937v-1.937V1.937V0H47.509L47.509,0z"/></g></svg>