<?xml version="1.0" encoding="utf-8"?>
<!-- Generator: Adobe Illustrator 27.5.0, SVG Export Plug-In . SVG Version: 6.00 Build 0)  -->
<svg version="1.1" id="Capa_1" xmlns="http://www.w3.org/2000/svg" xmlns:xlink="http://www.w3.org/1999/xlink" x="0px" y="0px"
	 viewBox="0 0 425.2 425.2" style="enable-background:new 0 0 425.2 425.2;" xml:space="preserve">
<rect x="0.002" y="0.002" style="fill:#E8E2C3;" width="425.195" height="425.196"/>
<g>
	<path style="fill:none;stroke:#003D5B;stroke-width:1.0661;stroke-miterlimit:10;stroke-dasharray:3.1984;" d="M333.402,342.289
		c22.431-27.459,35.891-62.535,35.891-100.757c0-88.022-71.357-159.38-159.38-159.38c-88.023,0-159.381,71.357-159.381,159.38
		c0,38.222,13.461,73.298,35.893,100.757"/>
	<circle style="fill:#D7DF23;" cx="210.676" cy="83.287" r="34.081"/>
	<path style="fill:#249DC3;" d="M282.811,127.676c0,18.822,15.257,34.081,34.08,34.081c18.822,0,34.081-15.259,34.081-34.081
		c0-18.822-15.259-34.081-34.081-34.081C298.068,93.595,282.811,108.854,282.811,127.676z"/>
	<path style="fill:#949AA8;" d="M52.068,127.676c0,18.822,15.258,34.081,34.08,34.081s34.081-15.259,34.081-34.081
		c0-18.822-15.259-34.081-34.081-34.081S52.068,108.854,52.068,127.676z"/>
	<path style="fill:#93C1BD;" d="M335.213,239.847c0,18.822,15.258,34.082,34.08,34.082c18.822,0,34.081-15.26,34.081-34.082
		c0-18.822-15.259-34.08-34.081-34.08C350.471,205.767,335.213,221.025,335.213,239.847z"/>
	<path style="fill:#289FAA;" d="M16.451,239.847c0,18.822,15.259,34.082,34.081,34.082c18.821,0,34.081-15.26,34.081-34.082
		c0-18.822-15.26-34.08-34.081-34.08C31.71,205.767,16.451,221.025,16.451,239.847z"/>
	<g>
		<path style="fill:#2599A3;" d="M237.166,83.376c0,14.181-11.493,25.675-25.673,25.675s-25.675-11.494-25.675-25.675
			c0-14.179,11.495-25.674,25.675-25.674S237.166,69.197,237.166,83.376z"/>
		<g>
			<path style="fill:#A7C3D2;" d="M219.115,59.912c2.879,1.727,3.885,4.943,4.175,8.214c0.089,1,1.256,1.315,1.837,0.497
				c1.114-1.566,3.235,1.193,3.931,1.91c0.521,0.489,0.965,1.043,1.335,1.662l-0.862,2.324c-0.378-0.486-0.691-1.01-0.941-1.57
				c-0.564-1.128-1.375-3.567-3.096-3.398c-1.87,0.182-3.648,1.096-5.169,2.161c-0.398,0.278-0.942,0.709-1.079,1.207
				c-0.302,1.1,1.994,4.694-1.316,4.608c-0.729-0.018-1.021,0.751-0.763,1.33c1.034,2.311,4.148,3.371,4.088,6.119
				c-0.011,0.527,0.544,0.971,1.056,0.805c0.591-0.19,1.004-0.359,1.575-0.609c0.624-0.318,1.268-0.594,1.927-0.828
				c0.958,0,1.443,0.393,1.458,1.178c-0.771,0.496-1.186,0.752-1.394,1.701c-0.358,1.639-1.075,3.093-1.297,4.801
				c-0.444,3.426-0.416,6.24-2.934,8.926c-0.431,0.459-0.006,1.195,0.608,1.044c1.389-0.341,2.57-1.354,3.992-1.54
				c0.263-0.033,0.502-0.156,0.572-0.436c0.248-0.975,2.045-4.49,3.447-4.372c-0.074,1.11,1.669,1.515,1.993,0.325
				c1.064-3.902,3.028-7.463,4.308-11.281c0.02-0.436,0.032-0.873,0.032-1.313c0-11.502-7.566-21.23-17.992-24.497
				C218.414,58.819,218.152,59.554,219.115,59.912z"/>
			<path style="fill:#A7C3D2;" d="M194.296,67.347c0.226-0.162,0.454-0.302,0.685-0.437c-0.412,1.409-1.045,2.709-0.742,4.233
				c0.307,1.541,2.045,3.16,2.987,4.377c0.577,0.746,1.196,1.438,1.902,2.06c1.061,0.938,0.033,0.941-0.903,1.913
				c-0.735,0.761-1.528,2.076-0.809,3.14c0.989,1.46,0.548,2.84,0.984,4.426c0.516,1.873,3.607,4.453,1.017,6.44
				c-1.17,0.896-0.114,2.375-0.194,3.521c-0.113,1.611,0.242,3.254,0.837,4.769c-0.033,0.426-0.044,0.859-0.026,1.302
				c0.049,1.186,1.878,1.194,1.848,0c-0.115-4.542,2.767-6.946,5.738-9.917c2.206-2.205,5.089-3.294,7.268-5.414
				c1.098-1.064,0.939-2.747-0.035-3.803c-0.586-0.635-1.605-0.975-2.363-1.334c-0.504-0.239-0.994-0.491-1.48-0.765
				c-1.05-0.591,0.145-0.581,0.762-0.846c0.811-0.348,0.604-1.766-0.25-1.907c-2.734-0.453-4.476-2.65-7.044-3.453
				c-1.013-0.316-1.979-0.449-3.031-0.535c-1.937-0.156-2.083-1.051-2.05-2.885c0.016-0.852-0.902-1.264-1.6-0.918
				c-0.083,0.042-0.165,0.084-0.248,0.124c-1.203-3.856,5.066-4.469,5.153-1.612c0.038,1.226,1.847,1.524,2.165,0.293
				c0.491-1.894,2.256-4.69,4.774-3.143c0.63,0.388,1.56-0.107,1.519-0.871c-0.039-0.738,0.008-1.439,0.07-2.15
				c0.36,0.065,0.72,0.129,1.079,0.211c0.903,0.204,1.591-0.881,0.913-1.569c-0.782-0.794-3.896-1.731-5.128-2.632
				c2.715-0.447,4.978-0.066,7.734-0.354c0.534-0.057,0.866-0.813,0.834-1.227c-1.671-0.342-2.991-0.077-4.763-0.077
				c-6.603,0-12.621,2.494-17.17,6.589c-0.419,0.448-0.835,0.91-1.252,1.388C193,66.831,193.635,67.816,194.296,67.347z"/>
			<path style="fill:#FFFFFF;" d="M193.892,66.74c0.225-0.16,0.453-0.302,0.684-0.438c-0.413,1.41-1.045,2.709-0.742,4.234
				c0.307,1.542,2.045,3.16,2.987,4.377c0.577,0.746,1.197,1.438,1.902,2.061c1.062,0.939,0.033,0.941-0.904,1.913
				c-0.733,0.761-1.527,2.076-0.807,3.14c0.988,1.46,0.548,2.84,0.983,4.425c0.516,1.874,3.606,4.454,1.017,6.441
				c-1.169,0.896-0.114,2.375-0.193,3.521c-0.115,1.611,0.241,3.254,0.837,4.77c-0.033,0.426-0.043,0.859-0.025,1.302
				c0.048,1.185,1.877,1.194,1.846,0c-0.114-4.542,2.768-6.947,5.738-9.916c2.206-2.206,5.089-3.294,7.27-5.415
				c1.094-1.064,0.936-2.747-0.038-3.803c-0.586-0.635-1.604-0.975-2.364-1.334c-0.503-0.239-0.993-0.491-1.48-0.764
				c-1.049-0.592,0.145-0.582,0.764-0.847c0.811-0.348,0.604-1.766-0.249-1.907c-2.735-0.453-4.478-2.65-7.046-3.453
				c-1.013-0.316-1.978-0.449-3.03-0.533c-1.938-0.157-2.083-1.053-2.05-2.886c0.015-0.853-0.904-1.264-1.6-0.919
				c-0.083,0.042-0.166,0.083-0.249,0.124c-1.203-3.856,5.065-4.469,5.154-1.612c0.037,1.226,1.847,1.524,2.166,0.293
				c0.489-1.894,2.255-4.689,4.772-3.143c0.631,0.388,1.56-0.107,1.52-0.871c-0.039-0.738,0.009-1.439,0.069-2.15
				c0.36,0.065,0.721,0.129,1.079,0.211c0.903,0.204,1.592-0.88,0.914-1.57c-0.783-0.793-3.896-1.73-5.128-2.631
				c2.714-0.446,5.429,0.026,8.184-0.262c0.535-0.056,0.825-0.46,0.794-0.875c-1.671-0.342-3.402-0.521-5.173-0.521
				c-6.603,0-12.621,2.494-17.17,6.589c-0.419,0.448-0.835,0.91-1.251,1.389C192.595,66.224,193.232,67.209,193.892,66.74z"/>
			<path style="fill:#FFFFFF;" d="M219.082,59.586c3.345,1.623,4.468,5.05,4.777,8.539c0.089,1,1.255,1.315,1.837,0.497
				c1.114-1.566,3.234,1.193,3.931,1.91c0.52,0.489,0.966,1.043,1.334,1.662l-0.862,2.324c-0.378-0.486-0.691-1.01-0.94-1.57
				c-0.564-1.128-1.377-3.567-3.097-3.398c-1.868,0.182-3.648,1.096-5.168,2.161c-0.397,0.278-0.942,0.709-1.079,1.207
				c-0.303,1.1,1.994,4.694-1.316,4.608c-0.729-0.018-1.021,0.751-0.764,1.33c1.035,2.311,4.148,3.371,4.089,6.119
				c-0.012,0.527,0.542,0.971,1.055,0.805c0.591-0.19,1.005-0.359,1.575-0.609c0.625-0.318,1.266-0.594,1.927-0.828
				c0.959,0,1.444,0.393,1.459,1.178c-0.771,0.496-1.187,0.752-1.394,1.701c-0.359,1.639-1.076,3.093-1.297,4.801
				c-0.443,3.426-0.416,6.24-2.934,8.926c-0.43,0.459-0.007,1.195,0.608,1.044c1.389-0.341,2.57-1.354,3.991-1.54
				c0.264-0.033,0.504-0.156,0.572-0.436c0.248-0.975,2.045-4.49,3.447-4.372c-0.074,1.11,1.67,1.515,1.993,0.325
				c1.065-3.902,3.03-7.463,4.308-11.281c0.021-0.436,0.031-0.873,0.031-1.313c0-11.712-7.846-21.587-18.566-24.671
				C218.585,59.06,218.729,59.416,219.082,59.586z"/>
		</g>
	</g>
	<g>
		
			<polygon style="fill:#93CED4;stroke:#000000;stroke-width:1.7719;stroke-linecap:round;stroke-linejoin:round;stroke-miterlimit:10;" points="
			331.801,131.86 300.847,131.86 293.168,112.369 334.057,112.369 		"/>
		
			<polyline style="fill:none;stroke:#000000;stroke-width:1.7719;stroke-linecap:round;stroke-linejoin:round;stroke-miterlimit:10;" points="
			302.028,140.523 330.772,140.523 334.373,110.199 338.943,108.826 		"/>
		
			<path style="fill:#93CED4;stroke:#000000;stroke-width:1.4423;stroke-linecap:round;stroke-linejoin:round;stroke-miterlimit:10;" d="
			M308.918,143.968c0,1.902-1.542,3.445-3.444,3.445c-1.903,0-3.445-1.543-3.445-3.445c0-1.903,1.542-3.445,3.445-3.445
			C307.376,140.523,308.918,142.065,308.918,143.968z"/>
		<path d="M306.85,143.968c0,0.761-0.616,1.377-1.377,1.377c-0.762,0-1.379-0.616-1.379-1.377c0-0.762,0.617-1.379,1.379-1.379
			C306.234,142.589,306.85,143.206,306.85,143.968z"/>
		
			<path style="fill:#93CED4;stroke:#000000;stroke-width:1.4423;stroke-linecap:round;stroke-linejoin:round;stroke-miterlimit:10;" d="
			M330.182,143.968c0,1.902-1.542,3.445-3.445,3.445s-3.445-1.543-3.445-3.445c0-1.903,1.542-3.445,3.445-3.445
			S330.182,142.065,330.182,143.968z"/>
		<path d="M328.114,143.968c0,0.761-0.617,1.377-1.378,1.377c-0.761,0-1.377-0.616-1.377-1.377c0-0.762,0.616-1.379,1.377-1.379
			C327.497,142.589,328.114,143.206,328.114,143.968z"/>
		<path d="M340.616,109.613c0,0.924-0.751,1.674-1.673,1.674c-0.926,0-1.674-0.75-1.674-1.674s0.748-1.674,1.674-1.674
			C339.865,107.939,340.616,108.689,340.616,109.613z"/>
		
			<line style="fill:none;stroke:#000000;stroke-width:1.7719;stroke-linecap:round;stroke-linejoin:round;stroke-miterlimit:10;" x1="332.958" y1="122.115" x2="297.007" y2="122.115"/>
		
			<line style="fill:none;stroke:#000000;stroke-width:1.7719;stroke-linecap:round;stroke-linejoin:round;stroke-miterlimit:10;" x1="314.982" y1="112.369" x2="314.982" y2="131.269"/>
		
			<line style="fill:none;stroke:#000000;stroke-width:1.7719;stroke-linecap:round;stroke-linejoin:round;stroke-miterlimit:10;" x1="301.24" y1="112.369" x2="307.54" y2="131.269"/>
		
			<line style="fill:none;stroke:#000000;stroke-width:1.7719;stroke-linecap:round;stroke-linejoin:round;stroke-miterlimit:10;" x1="324.865" y1="112.369" x2="323.291" y2="131.269"/>
		
			<line style="fill:none;stroke:#000000;stroke-width:1.7719;stroke-linecap:round;stroke-linejoin:round;stroke-miterlimit:10;" x1="333.612" y1="116.209" x2="294.743" y2="116.209"/>
		
			<line style="fill:none;stroke:#000000;stroke-width:1.7719;stroke-linecap:round;stroke-linejoin:round;stroke-miterlimit:10;" x1="332.302" y1="127.529" x2="299.173" y2="127.529"/>
	</g>
	<g>
		<path style="fill:#EE332A;" d="M398.215,239.437c0.213,14.895-11.69,27.141-26.584,27.352
			c-14.895,0.211-27.141-11.691-27.352-26.586c-0.211-14.894,11.69-27.14,26.585-27.352
			C385.759,212.64,398.005,224.542,398.215,239.437z"/>
		<path style="fill:#FFFFFF;" d="M370.931,217.542c-12.304,0.175-22.137,10.291-21.962,22.595
			c0.175,12.305,10.291,22.137,22.595,21.963c12.305-0.176,22.137-10.291,21.962-22.596
			C393.35,227.2,383.235,217.367,370.931,217.542z M371.505,257.929c-10.003,0.143-18.225-7.852-18.366-17.852
			c-0.143-10.002,7.851-18.225,17.852-18.367c10.001-0.142,18.224,7.852,18.366,17.852
			C389.498,249.564,381.506,257.787,371.505,257.929z"/>
		<path style="fill:#FFFFFF;" d="M371.047,225.792c-7.746,0.109-13.938,6.48-13.828,14.227c0.111,7.746,6.48,13.939,14.227,13.828
			c7.748-0.109,13.939-6.48,13.83-14.227C385.165,231.874,378.795,225.682,371.047,225.792z M371.382,249.292
			c-5.232,0.074-9.534-4.105-9.608-9.338c-0.074-5.232,4.107-9.533,9.34-9.607c5.23-0.075,9.533,4.105,9.608,9.338
			C380.795,244.917,376.613,249.218,371.382,249.292z"/>
		<path style="fill:#FFFFFF;" d="M371.178,234.869c-2.734,0.039-4.92,2.287-4.881,5.021c0.037,2.734,2.285,4.92,5.021,4.881
			c2.732-0.039,4.918-2.287,4.879-5.021C376.16,237.015,373.91,234.83,371.178,234.869z M371.275,241.775
			c-1.08,0.015-1.967-0.848-1.982-1.928c-0.016-1.078,0.848-1.966,1.926-1.98c1.08-0.016,1.968,0.846,1.982,1.926
			C373.217,240.872,372.354,241.759,371.275,241.775z"/>
		<g>
			<polygon style="fill:#F9A45A;" points="395.85,254.593 396.57,258.908 397.691,259.55 397.626,257.765 398.781,260.175 
				401.359,261.652 401.378,259.634 402.422,262.261 404.683,263.556 403.963,259.244 			"/>
			<polygon style="fill:#DA844D;" points="396.313,253.783 400.637,252.445 402.498,253.103 400.947,253.732 403.195,253.912 
				405.166,255.042 404.264,255.505 406.386,255.74 408.749,257.095 404.427,258.433 			"/>
			<path style="fill:#603913;" d="M371.039,240.339c-0.355-0.205-0.127-1.125,0.555-0.788l34.19,19.341
				c0.357,0.203,0.48,0.658,0.275,1.016l0,0c-0.204,0.357-0.659,0.48-1.017,0.275L371.039,240.339z"/>
		</g>
	</g>
	<g>
		<path style="fill:#FFC421;" d="M67.911,261.384c0,1.896-1.536,3.434-3.432,3.434H36.586c-1.895,0-3.432-1.537-3.432-3.434v-26.518
			c0-1.895,1.537-3.432,3.432-3.432h27.894c1.896,0,3.432,1.537,3.432,3.432V261.384z"/>
		<path style="fill:#FFD31C;" d="M65.64,261.693c0,1.727-1.337,3.125-2.984,3.125H38.411c-1.648,0-2.984-1.398-2.984-3.125v-23.844
			c0-1.727,1.336-3.124,2.984-3.124h24.244c1.647,0,2.984,1.398,2.984,3.124V261.693z"/>
		<path style="fill:#D1D3D4;" d="M50.532,212.554c-6.385,0-11.574,5.11-11.709,11.463v7.418h3.969v-7.418
			c0.134-4.164,3.542-7.502,7.74-7.502c4.198,0,7.607,3.338,7.743,7.502v7.418h3.967v-7.418
			C62.107,217.665,56.918,212.554,50.532,212.554z"/>
		<path style="fill:#E49723;" d="M54.354,246.234c0-2.11-1.71-3.821-3.821-3.821c-2.109,0-3.82,1.711-3.82,3.821
			c0,1.434,0.789,2.68,1.956,3.334l-0.919,5.848h5.344l-0.728-5.828C53.551,248.937,54.354,247.679,54.354,246.234z"/>
		<path style="fill:#D27D21;" d="M47.998,246.234c0-1.891,1.375-3.456,3.179-3.763c-0.21-0.036-0.425-0.059-0.645-0.059
			c-2.109,0-3.82,1.711-3.82,3.821c0,1.434,0.789,2.68,1.956,3.334l-0.919,5.848h1.286l0.92-5.848
			C48.788,248.914,47.998,247.667,47.998,246.234z"/>
	</g>
	<g>
		
			<rect x="72.958" y="100.427" transform="matrix(0.5394 -0.8421 0.8421 0.5394 -66.7109 129.0597)" style="fill:#51693C;" width="23.311" height="50.161"/>
		<polygon style="fill:#445F37;" points="57.994,121.695 70.018,102.921 111.241,129.326 		"/>
		<path style="fill:#6F8A52;" d="M101.42,142.423l5.587-8.723c-2.462-1.578-3.376-4.547-2.04-6.631l-30.284-19.398
			c-1.336,2.086-4.415,2.497-6.876,0.92l-5.588,8.725c2.462,1.576,3.376,4.545,2.04,6.629l30.285,19.399
			C95.88,141.258,98.958,140.847,101.42,142.423z"/>
		<path style="fill:#E8E2C3;" d="M101.002,141.831l5.293-8.264c-2.393-1.531-3.304-4.373-2.04-6.349l-29.41-18.838
			c-1.266,1.974-4.229,2.333-6.62,0.802l-5.293,8.264c2.392,1.531,3.303,4.374,2.04,6.349l29.41,18.839
			C95.647,140.66,98.61,140.3,101.002,141.831z"/>
		<path style="fill:#51693C;" d="M93.764,131.369c-3.319,5.185-10.108,6.763-15.164,3.525c-5.053-3.236-6.458-10.064-3.138-15.248
			c3.319-5.184,10.108-6.762,15.163-3.525C95.68,119.359,97.085,126.185,93.764,131.369z"/>
		<g>
			<path style="fill:#E8E2C3;" d="M86.996,130.669c-0.616,0.963-1.449,1.539-2.498,1.73c-1.049,0.19-2.207-0.028-3.473-0.656
				l-1.09,1.697l-0.662-0.425l1.087-1.698c-1.184-0.758-2.182-1.865-2.992-3.32l1.625-2.537l0.313,0.2
				c-0.931,2.083-0.463,3.786,1.405,5.111l3.513-5.484c-1.524-2.72-1.841-4.774-0.948-6.167c0.541-0.846,1.286-1.336,2.235-1.473
				c0.949-0.135,1.995,0.109,3.138,0.73l0.8-1.248l0.664,0.424l-0.813,1.27c1.25,0.8,2.079,1.809,2.492,3.027l-1.374,2.146
				l-0.313-0.199c0.37-0.92,0.471-1.723,0.304-2.407c-0.167-0.685-0.632-1.392-1.396-2.118l-3.087,4.82
				c1.011,1.713,1.576,3.11,1.689,4.193C87.686,129.121,87.479,129.915,86.996,130.669z M85.448,123.374l2.888-4.508
				c-0.589-0.285-1.219-0.34-1.89-0.164c-0.671,0.174-1.154,0.49-1.445,0.945C84.509,120.415,84.658,121.658,85.448,123.374z
				 M85.186,130.144c0.626-0.977,0.46-2.35-0.5-4.119l-3.312,5.172c0.726,0.355,1.438,0.435,2.133,0.237
				C84.201,131.238,84.762,130.806,85.186,130.144z"/>
		</g>
	</g>
</g>
<g>
	<g>
		<g>
			<path style="fill:#00B9C5;" d="M272.557,395.979c-41.248,0-62.67-16.162-73.406-29.84c-12.029-15.322-13.578-30.904-13.637-31.56
				l14.438-1.321l-7.219,0.661l7.215-0.699c0.203,1.987,5.715,48.261,72.59,48.261c0.584,0,1.17-0.004,1.764-0.011l0.174,14.497
				C273.832,395.976,273.191,395.979,272.557,395.979z"/>
		</g>
		<g>
			<g>
				<g>
					<path style="fill:#F9A374;" d="M284.85,387.706c0,0,1.859-1.268,3.096-0.959l5.994,6.391l1.049,0.923
						c0,0-1.959,0.886-3.85-0.923C291.139,393.138,286.682,388.144,284.85,387.706z"/>
					<path style="fill:#F9A374;" d="M281.182,387.706c0,0,1.859-1.268,3.094-0.959l5.996,6.391l1.049,0.923
						c0,0-1.959,0.886-3.85-0.923C287.471,393.138,283.012,388.144,281.182,387.706z"/>
					<path style="fill:#F9A374;" d="M287.621,386.857c0,0,1.857-1.268,3.092-0.959l5.996,6.39l1.051,0.923
						c0,0-1.963,0.889-3.85-0.923C293.91,392.288,289.449,387.296,287.621,386.857z"/>
				</g>
				<path style="fill:#F9A374;" d="M274.455,392.597c0,0,4.338,1.978,6.762,2.196c0,0,1.947,0.631,4.916,2.913
					c0,0,1.895,1.038,1.572-1.988c0,0-2.658-3.058-5.207-3.805c0,0,4.5-6.387,8.215-6.016c0,0-5.969-1.44-8.852-0.793
					c0,0-1.672,0.186-7.406,0V392.597z"/>
			</g>
		</g>
	</g>
	<g>
		<g>
			<rect x="124.957" y="372.192" style="fill:#28313B;" width="9.131" height="53.008"/>
			<path style="fill:#1B232D;" d="M117.584,382.805c0,2.206,2.248,3.996,5.023,3.996h13.828c2.775,0,5.023-1.789,5.023-3.996l0,0
				c0-2.205-2.248-3.994-5.023-3.994h-13.828C119.832,378.811,117.584,380.601,117.584,382.805L117.584,382.805z"/>
			<path style="fill:#1B232D;" d="M117.584,393.145c0,2.206,2.248,3.995,5.023,3.995h13.828c2.775,0,5.023-1.789,5.023-3.995l0,0
				c0-2.206-2.248-3.994-5.023-3.994h-13.828C119.832,389.151,117.584,390.939,117.584,393.145L117.584,393.145z"/>
			<path style="fill:#1B232D;" d="M117.584,403.485c0,2.205,2.248,3.994,5.023,3.994h13.828c2.775,0,5.023-1.789,5.023-3.994l0,0
				c0-2.206-2.248-3.995-5.023-3.995h-13.828C119.832,399.49,117.584,401.279,117.584,403.485L117.584,403.485z"/>
			<path style="fill:#1B232D;" d="M117.584,413.735c0,2.206,2.248,3.995,5.023,3.995h13.828c2.775,0,5.023-1.789,5.023-3.995l0,0
				c0-2.205-2.248-3.993-5.023-3.993h-13.828C119.832,409.743,117.584,411.53,117.584,413.735L117.584,413.735z"/>
			<path style="fill:#1B232D;" d="M141.232,425.2c0.133-0.359,0.226-0.731,0.226-1.124c0-2.206-2.248-3.994-5.023-3.994h-13.828
				c-2.775,0-5.023,1.788-5.023,3.994c0,0.393,0.094,0.766,0.227,1.124H141.232z"/>
			<path style="fill:#D83633;" d="M96.477,356.412c0,11.635,9.432,21.068,21.066,21.068h42.762c11.635,0,21.066-9.433,21.066-21.068
				v-21.059c0-11.636-9.432-21.068-21.066-21.068h-42.762c-11.635,0-21.066,9.432-21.066,21.068V356.412z"/>
			<path style="fill:#D1D3D4;" d="M115.275,314.41c-2.887,3.374-4.639,7.745-4.639,12.533v19.296
				c0,10.66,8.644,19.304,19.305,19.304h39.178c4.344,0,8.338-1.453,11.564-3.874c-2.336,9.087-10.563,15.813-20.379,15.813h-42.762
				c-11.635,0-21.066-9.433-21.066-21.068v-21.059C96.477,324.483,104.709,315.543,115.275,314.41z"/>
		</g>
	</g>
	<path style="fill:#4E2723;" d="M126.461,366.603h66.272l-0.774-132.233l-45.441-17.754c0,0-13.035,5.64-15.668,35.486
		c0,0-1.328,15.753,1.268,40.161C132.117,292.264,137.434,355.117,126.461,366.603z"/>
	<g>
		<polygon style="fill:#F9A374;" points="167.037,321.462 179.316,321.462 179.316,308.273 167.037,300.718 		"/>
		<path style="fill:#E6E7E8;" d="M174.234,318.424c2.873-2.847,3.336-8.215,1.707-12.23l3.375,2.08v13.189h-12.279v-0.876
			C169.553,321.122,172.307,320.329,174.234,318.424z"/>
	</g>
	<g>
		<g>
			<path style="fill:#F9A374;" d="M149.291,271.356c0.744,5.305-1.363,9.982-4.697,10.444c-3.336,0.466-6.641-3.452-7.379-8.758
				c-0.738-5.302,1.363-9.979,4.701-10.444C145.25,262.133,148.553,266.054,149.291,271.356z"/>
			<g>
				<path style="fill:#C8825F;" d="M144.4,269.809c0,0-0.033-0.297-0.135-0.782c-0.096-0.489-0.316-1.178-0.684-1.915
					c-0.371-0.711-0.994-1.532-1.83-1.586c-0.205-0.015-0.422,0.013-0.641,0.064c-0.035,0.02-0.262,0.086-0.33,0.13
					c-0.076,0.056-0.156,0.078-0.244,0.157c-0.357,0.262-0.658,0.671-0.867,1.141c-0.223,0.465-0.377,0.982-0.475,1.499
					c-0.086,0.514-0.156,1.053-0.109,1.515c0.07,0.531,0.068,1.077,0.16,1.54c0.084,0.473,0.162,0.916,0.236,1.33
					c0.113,0.414,0.191,0.798,0.264,1.141c0.07,0.345,0.182,0.631,0.244,0.876c0.141,0.485,0.213,0.772,0.213,0.772
					s-0.16-0.245-0.408-0.69c-0.113-0.229-0.287-0.49-0.428-0.818c-0.15-0.326-0.318-0.693-0.484-1.102
					c-0.156-0.415-0.291-0.888-0.439-1.384c-0.154-0.499-0.209-1.005-0.307-1.543c-0.092-0.613-0.076-1.205,0.025-1.811
					c0.098-0.601,0.26-1.206,0.529-1.789c0.271-0.572,0.67-1.132,1.24-1.536c0.127-0.1,0.314-0.188,0.488-0.269
					c0.185-0.075,0.234-0.078,0.463-0.144c0.328-0.056,0.662-0.076,0.998-0.027c0.678,0.097,1.225,0.518,1.566,0.954
					c0.355,0.437,0.557,0.908,0.705,1.338c0.291,0.87,0.314,1.624,0.32,2.135C144.467,269.524,144.4,269.809,144.4,269.809z"/>
			</g>
			<path style="fill:#C8825F;" d="M144.4,269.809c0,0,0.34-0.562-1.83-0.722c0,0-2.453,0.333-1.178,2.983
				c0.275,0.57,0.506,1.16,0.623,1.785c0.164,0.885-0.291,2.079,0.246,2.869c0.693,1.023,2.643,0.471,2.824-0.685
				c0.141-0.884-0.893-2.419-1.371-3.057C143.715,272.981,142.266,271.04,144.4,269.809z"/>
			<g>
				<path style="fill:#C8825F;" d="M145.094,275.924c-0.006,0.003,0.072,0.039,0.158,0.146c0.1,0.104,0.203,0.272,0.293,0.497
					c0.055,0.112,0.066,0.237,0.09,0.378c0.02,0.137,0.051,0.289,0.016,0.438c-0.025,0.149-0.039,0.314-0.08,0.47
					c-0.047,0.152-0.133,0.29-0.205,0.438c-0.088,0.136-0.154,0.295-0.27,0.399c-0.104,0.115-0.232,0.206-0.34,0.301
					c-0.215,0.206-0.459,0.32-0.686,0.376c-0.439,0.146-0.752,0.138-0.752,0.138s0.143-0.316,0.377-0.635
					c0.057-0.085,0.121-0.169,0.195-0.247c0.059-0.093,0.105-0.202,0.172-0.29c0.066-0.091,0.119-0.193,0.197-0.277
					c0.082-0.084,0.1-0.198,0.158-0.291c0.139-0.181,0.203-0.381,0.299-0.576c0.049-0.095,0.076-0.193,0.111-0.288
					c0.02-0.101,0.08-0.197,0.096-0.288C145.033,276.248,145.094,275.924,145.094,275.924z"/>
			</g>
		</g>
		<path style="fill:#F9A374;" d="M169.334,306.021c0,0-1.949-0.906-4.707-2.566c-6.221-3.749-16.553-11.349-17.897-21.094
			c0,0-15.557-56.999,21.053-60.302c0,0,28.607-8.046,34.734,28.994c0,0,3.818,40.779-16.021,53.943c0,0-5.189,3.569-7.52,4.186
			C178.977,309.182,173.857,308.48,169.334,306.021z"/>
		<path style="fill:#E6E7E8;" d="M167.783,222.059c0,0,4.268-1.132,9.947-0.679c-9.152,2.688-16.851,8.963-21.223,17.809
			c-5.541,11.215-8.758,25.301-5.723,37.383c3.092,12.292,13.742,25.369,27.328,27.337c7.566,1.097,13.596-4.347,18.408-10.479
			c-2.525,4.676-5.791,8.755-10.025,11.564c0,0-5.189,3.569-7.52,4.186c0,0-5.119-0.702-9.643-3.161c0,0-1.949-0.906-4.707-2.566
			c-6.221-3.749-16.553-11.349-17.897-21.094C146.73,282.361,131.174,225.362,167.783,222.059z"/>
		<g>
			<g>
				<path style="fill:#2E2E2F;" d="M187.932,265.612c0.055,1.747,1.518,3.115,3.266,3.06c1.744-0.057,3.113-1.52,3.057-3.266
					c-0.057-1.745-1.518-3.116-3.264-3.059C189.242,262.403,187.873,263.867,187.932,265.612z"/>
				<path style="fill:#FFFFFF;" d="M190.844,263.491c-0.244,0.363,0.146,1.052,0.873,1.54c0.725,0.484,1.51,0.587,1.754,0.225
					c0.244-0.363-0.146-1.052-0.873-1.54C191.873,263.229,191.086,263.129,190.844,263.491z"/>
			</g>
			<path style="fill:#3C2415;" d="M183.242,257.119c0,0-0.328,2.286,0.434,3.516c0,0,9.904-4.639,14.738-1.733
				c0,0,2.842,1.609,3.027,3.103c0,0-0.207-6.263-6.889-6.741C194.553,255.264,189.67,254.266,183.242,257.119z"/>
			<g>
				<g>
					<g>
						<path style="fill:#1C0200;" d="M185.332,265.755c0.273-0.091,0.51-0.253,0.745-0.41c0.234-0.157,0.45-0.343,0.667-0.523
							c0.428-0.371,0.843-0.754,1.24-1.156l-0.016,0.016c0.523-0.586,1.146-1.02,1.86-1.335c0.71-0.31,1.526-0.436,2.315-0.319
							c0.787,0.125,1.523,0.469,2.122,0.945c0.306,0.232,0.576,0.499,0.837,0.77c0.246,0.284,0.472,0.581,0.684,0.884l0.014,0.019
							c0.129,0.211,0.324,0.437,0.527,0.618c0.209,0.185,0.446,0.334,0.698,0.459c0.507,0.257,1.112,0.285,1.706,0.191
							c-0.279,0.109-0.574,0.211-0.887,0.223c-0.311,0.03-0.631-0.006-0.938-0.093c-0.311-0.082-0.602-0.232-0.863-0.419
							c-0.264-0.192-0.494-0.398-0.709-0.679l0.014,0.019c-0.926-1.037-2.025-1.973-3.322-2.147c-0.638-0.107-1.297-0.01-1.92,0.223
							c-0.313,0.115-0.615,0.266-0.903,0.443c-0.285,0.174-0.58,0.376-0.817,0.589l-0.017,0.016
							c-0.46,0.359-0.916,0.722-1.419,1.024C186.441,265.389,185.92,265.703,185.332,265.755z"/>
					</g>
				</g>
				<g>
					<g>
						<path style="fill:#1C0200;" d="M195.459,264.386c0,0,0.944,0.391,1.955,0.469c0.25,0.011,0.504,0.011,0.73-0.043
							c0.232-0.038,0.427-0.148,0.567-0.27c0.081-0.052,0.11-0.14,0.162-0.197c0.053-0.059,0.064-0.128,0.084-0.18
							c0.036-0.106,0.058-0.167,0.058-0.167s-0.016,0.063-0.041,0.172c-0.016,0.055-0.02,0.127-0.068,0.193
							c-0.046,0.064-0.072,0.16-0.15,0.223c-0.135,0.144-0.336,0.284-0.578,0.348c-0.237,0.082-0.504,0.107-0.768,0.121
							c-1.061,0.021-2.08-0.29-2.08-0.29L195.459,264.386z"/>
					</g>
				</g>
				<g>
					<g>
						<path style="fill:#1C0200;" d="M194.842,263.797c0,0,0.998,0.228,2.008,0.136c0.248-0.031,0.499-0.073,0.713-0.165
							c0.224-0.076,0.396-0.217,0.515-0.361c0.071-0.065,0.086-0.156,0.126-0.221c0.043-0.067,0.041-0.138,0.053-0.192
							c0.02-0.111,0.029-0.175,0.029-0.175s-0.004,0.065-0.012,0.177c-0.006,0.056,0.002,0.128-0.035,0.201
							c-0.034,0.071-0.043,0.17-0.109,0.246c-0.109,0.165-0.285,0.337-0.513,0.44c-0.221,0.12-0.479,0.189-0.737,0.247
							c-1.043,0.197-2.1,0.062-2.1,0.062L194.842,263.797z"/>
					</g>
				</g>
			</g>
		</g>
		<g>
			<g>
				<path style="fill:#2E2E2F;" d="M169.416,266.216c0.057,1.747-1.311,3.21-3.057,3.266c-1.746,0.058-3.211-1.311-3.266-3.059
					c-0.059-1.746,1.311-3.21,3.057-3.265C167.898,263.1,169.359,264.472,169.416,266.216z"/>
				<path style="fill:#FFFFFF;" d="M166.373,264.29c0.266,0.347-0.08,1.059-0.77,1.594c-0.693,0.53-1.473,0.684-1.74,0.337
					c-0.266-0.346,0.082-1.06,0.771-1.593C165.33,264.095,166.107,263.945,166.373,264.29z"/>
			</g>
			<path style="fill:#3C2415;" d="M173.543,257.435c0,0,0.475,2.262-0.205,3.537c0,0-10.188-3.983-14.818-0.767
				c0,0-2.73,1.79-2.822,3.293c0,0-0.201-6.263,6.438-7.176C162.135,256.322,166.941,255.008,173.543,257.435z"/>
			<g>
				<g>
					<g>
						<path style="fill:#1C0200;" d="M172.023,266.19c-0.592-0.013-1.135-0.292-1.662-0.535c-0.523-0.269-1.004-0.601-1.486-0.93
							l-0.018-0.015c-0.251-0.197-0.559-0.379-0.855-0.534c-0.3-0.158-0.611-0.29-0.931-0.383c-0.635-0.192-1.3-0.245-1.929-0.097
							c-1.282,0.258-2.318,1.264-3.173,2.358l0.012-0.02c-0.196,0.294-0.412,0.515-0.663,0.724
							c-0.249,0.204-0.529,0.373-0.834,0.474c-0.301,0.107-0.618,0.164-0.93,0.154c-0.312,0.009-0.614-0.074-0.899-0.164
							c0.6,0.055,1.201-0.013,1.689-0.302c0.244-0.14,0.471-0.305,0.666-0.503c0.193-0.194,0.373-0.433,0.486-0.651l0.012-0.02
							c0.193-0.316,0.398-0.627,0.625-0.927c0.242-0.287,0.495-0.571,0.785-0.823c0.566-0.514,1.277-0.906,2.055-1.081
							c0.779-0.168,1.603-0.095,2.331,0.167c0.733,0.268,1.382,0.66,1.942,1.211l-0.018-0.015c0.426,0.376,0.865,0.731,1.318,1.073
							c0.229,0.165,0.457,0.337,0.702,0.478C171.496,265.97,171.744,266.117,172.023,266.19z"/>
					</g>
				</g>
				<g>
					<g>
						<path style="fill:#1C0200;" d="M161.979,265.853c0,0-0.997,0.376-2.058,0.425c-0.265,0.003-0.531-0.005-0.774-0.071
							c-0.244-0.048-0.455-0.174-0.6-0.309c-0.082-0.058-0.114-0.152-0.164-0.213c-0.053-0.063-0.061-0.135-0.08-0.188
							c-0.033-0.108-0.053-0.17-0.053-0.17s0.025,0.06,0.068,0.164c0.023,0.05,0.039,0.119,0.096,0.174
							c0.055,0.054,0.09,0.139,0.174,0.186c0.148,0.112,0.35,0.209,0.584,0.232c0.23,0.039,0.484,0.022,0.732-0.005
							c1.004-0.144,1.922-0.596,1.922-0.596L161.979,265.853z"/>
					</g>
				</g>
				<g>
					<g>
						<path style="fill:#1C0200;" d="M162.492,265.246c0,0-1.047,0.206-2.102,0.077c-0.261-0.041-0.522-0.093-0.751-0.199
							c-0.233-0.088-0.421-0.249-0.54-0.406c-0.071-0.071-0.087-0.169-0.126-0.237c-0.041-0.07-0.038-0.143-0.048-0.199
							c-0.016-0.112-0.023-0.176-0.023-0.176s0.015,0.063,0.04,0.172c0.015,0.054,0.019,0.124,0.065,0.188
							c0.045,0.063,0.065,0.153,0.141,0.213c0.127,0.136,0.309,0.265,0.537,0.327c0.22,0.077,0.473,0.103,0.723,0.118
							c1.015,0.025,1.994-0.268,1.994-0.268L162.492,265.246z"/>
					</g>
				</g>
			</g>
		</g>
		<path style="fill:#4E2723;" d="M140.383,263.273c5.268-0.57,6.135,8.549,6.135,8.549c0.418-2.286,0.566-12.089,0.566-12.089
			c0.002-5.329,3.816-6.538,3.816-6.538l8.191-0.267l2.127-11.487l0.363,11.23l11.602-0.379l1.355-5.49l0.174,5.265l11.098-0.362
			l-0.5-15.266l2.926,15.538l11.607-0.378l-0.135-4.211c0,0,4.268-3.708,2.494,23.521c0.273-4.189,10.115-30.564-5.656-49.638
			c-10.42-12.599-32.771-10.773-32.771-10.773c-22.848,2.282-28.119,20.168-28.119,20.168c0.85-2.233-6.984,21.266,1.41,37.736
			C137.066,268.401,138.299,263.498,140.383,263.273z"/>
		<g>
			<path style="fill:#FFFFFF;" d="M188.262,287.986l-17.85,0.583c0,0,1.77,7.089,9.996,6.82
				C180.408,295.39,186.266,295.198,188.262,287.986z"/>
			<g>
				<g>
					<g>
						<path style="fill:#D97374;" d="M188.102,288.106c-1.424,0.314-2.852,0.516-4.281,0.664c-0.742,0.081-1.484,0.136-2.228,0.194
							c-0.743,0.036-1.485,0.1-2.229,0.112c-1.487,0.055-2.98-0.067-4.473-0.169c-0.746-0.052-1.492-0.101-2.237-0.11
							c-0.745-0.004-1.489,0.009-2.232,0.053l0.263-0.349c0.286,0.924,0.829,1.804,1.448,2.554c0.315,0.375,0.655,0.725,1.023,1.035
							c0.173,0.168,0.373,0.303,0.564,0.443c0.189,0.144,0.374,0.292,0.584,0.404c0.207,0.116,0.396,0.253,0.602,0.366l0.633,0.305
							c0.423,0.195,0.869,0.345,1.314,0.476c0.461,0.091,0.904,0.236,1.381,0.255l0.701,0.072c0.236,0.012,0.476,0.001,0.712,0.011
							l0.712,0.014c0.171-0.012,0.385-0.039,0.607-0.087c0.438-0.074,0.885-0.187,1.312-0.35c0.431-0.155,0.849-0.349,1.254-0.571
							c0.405-0.221,0.794-0.48,1.159-0.773c0.385-0.273,0.707-0.621,1.052-0.954c0.319-0.357,0.642-0.721,0.916-1.128
							c0.311-0.386,0.535-0.828,0.812-1.252C187.701,288.932,187.883,288.515,188.102,288.106z M188.348,288.01
							c-0.078,0.512-0.154,1.037-0.289,1.547c-0.148,0.507-0.285,1.028-0.524,1.511c-0.196,0.505-0.487,0.963-0.771,1.435
							c-0.317,0.445-0.647,0.894-1.046,1.283c-0.188,0.207-0.39,0.401-0.612,0.572c-0.216,0.179-0.431,0.361-0.669,0.512
							c-0.459,0.326-0.953,0.609-1.477,0.824c-0.519,0.23-1.061,0.404-1.626,0.532c-0.278,0.058-0.573,0.099-0.914,0.116
							l-0.823-0.02c-0.55,0.015-1.098-0.081-1.644-0.182c-0.549-0.066-1.079-0.266-1.612-0.417c-0.52-0.191-1.04-0.409-1.527-0.676
							c-0.485-0.278-0.955-0.575-1.374-0.944c-0.427-0.351-0.813-0.751-1.151-1.18c-0.35-0.421-0.644-0.878-0.922-1.337
							c-0.537-0.938-0.936-1.907-1.226-2.949l-0.097-0.347l0.359-0.002c0.745-0.005,1.488-0.041,2.231-0.093
							c0.742-0.057,1.483-0.155,2.226-0.255c1.482-0.199,2.964-0.418,4.451-0.46c0.744-0.037,1.488-0.021,2.232-0.034
							c0.745,0.01,1.49,0.017,2.235,0.049c1.491,0.057,2.983,0.165,4.48,0.403l0.105,0.017L188.348,288.01z"/>
					</g>
				</g>
			</g>
		</g>
		<g>
			<g>
				<g>
					<path style="fill:#CF8962;" d="M181.102,262.668c0,0,0.033,0.391,0.107,1.063c0.023,0.336,0.094,0.744,0.156,1.209
						c0.058,0.466,0.154,0.988,0.26,1.555c0.105,0.567,0.199,1.183,0.364,1.822c0.163,0.639,0.283,1.322,0.489,2.008
						c0.205,0.685,0.416,1.393,0.631,2.112c0.254,0.705,0.545,1.408,0.817,2.118c0.232,0.729,0.619,1.385,0.946,2.057
						c0.166,0.335,0.331,0.668,0.494,0.997l0.252,0.516c0.105,0.221,0.161,0.41,0.217,0.621c0.098,0.414,0.105,0.861-0.007,1.277
						c-0.12,0.414-0.352,0.787-0.642,1.045c-0.575,0.522-1.232,0.78-1.822,0.901c-0.59,0.154-1.139,0.193-1.617,0.212
						c-0.48,0.004-0.896,0.031-1.238-0.002c-0.683-0.043-1.068-0.082-1.068-0.082s0.389-0.054,1.061-0.123
						c0.338-0.018,0.74-0.108,1.199-0.182c0.232-0.03,0.469-0.102,0.719-0.169c0.25-0.065,0.515-0.122,0.77-0.232
						c0.529-0.167,1.051-0.472,1.432-0.868c0.377-0.408,0.483-0.961,0.316-1.544c-0.144-0.491-0.646-1.224-0.968-1.899
						c-0.352-0.692-0.767-1.372-1.017-2.122c-0.271-0.741-0.561-1.475-0.811-2.209c-0.192-0.75-0.381-1.489-0.563-2.204
						c-0.187-0.713-0.246-1.428-0.361-2.09c-0.123-0.663-0.149-1.302-0.19-1.887c-0.053-0.585-0.066-1.122-0.051-1.6
						c0.008-0.477,0-0.89,0.028-1.232C181.042,263.052,181.102,262.668,181.102,262.668z"/>
				</g>
				<g>
					<path style="fill:#CF8962;" d="M177.678,278.518c0,0-0.072,0.321-0.178,0.708c-0.043,0.197-0.104,0.411-0.128,0.618
						c-0.03,0.104-0.004,0.203-0.026,0.297c0.013,0.087,0,0.18,0.035,0.253c0.008,0.164,0.105,0.3,0.199,0.471
						c0.07,0.069,0.124,0.158,0.186,0.24c0.078,0.068,0.148,0.145,0.215,0.221c0.131,0.152,0.274,0.262,0.359,0.366
						c0.09,0.099,0.143,0.166,0.143,0.166s-0.078,0.018-0.214,0.03c-0.135,0.003-0.337,0.036-0.565-0.025
						c-0.234-0.038-0.504-0.14-0.771-0.335c-0.26-0.204-0.508-0.533-0.582-0.928c-0.076-0.392,0-0.772,0.145-1.051
						c0.133-0.292,0.325-0.499,0.502-0.654C177.352,278.588,177.678,278.518,177.678,278.518z"/>
				</g>
			</g>
		</g>
		<g style="opacity:0.2;">
			<path style="fill:#FFFFFF;" d="M153.195,275.582c0.107,3.314,4.174,5.874,9.074,5.713c4.91-0.16,8.793-2.978,8.682-6.292
				c-0.105-3.314-4.166-5.868-9.072-5.708C156.975,269.454,153.086,272.268,153.195,275.582z"/>
			<path style="fill:#FEF4F3;" d="M153.518,275.571c0.104,3.195,4.024,5.664,8.751,5.509c4.733-0.154,8.479-2.871,8.372-6.067
				c-0.102-3.196-4.018-5.659-8.749-5.505C157.163,269.662,153.412,272.376,153.518,275.571z"/>
			<path style="fill:#FEECEB;" d="M153.841,275.56c0.1,3.078,3.876,5.455,8.429,5.306c4.559-0.149,8.165-2.766,8.063-5.844
				c-0.099-3.078-3.87-5.449-8.426-5.301C157.35,269.87,153.739,272.483,153.841,275.56z"/>
			<path style="fill:#FDE4E3;" d="M154.163,275.55c0.097,2.96,3.728,5.245,8.105,5.101c4.384-0.143,7.853-2.659,7.753-5.619
				c-0.094-2.96-3.722-5.241-8.102-5.098C157.539,270.078,154.066,272.591,154.163,275.55z"/>
			<path style="fill:#FCDCDC;" d="M154.486,275.54c0.093,2.842,3.578,5.036,7.781,4.897c4.209-0.137,7.539-2.552,7.445-5.394
				c-0.092-2.841-3.574-5.032-7.779-4.895C157.727,270.286,154.393,272.698,154.486,275.54z"/>
			<path style="fill:#FCD4D4;" d="M154.809,275.529c0.089,2.724,3.43,4.826,7.458,4.694c4.033-0.132,7.226-2.446,7.135-5.17
				c-0.088-2.724-3.426-4.822-7.455-4.69C157.915,270.493,154.719,272.806,154.809,275.529z"/>
			<path style="fill:#FBCCCD;" d="M155.133,275.519c0.085,2.605,3.279,4.616,7.135,4.49c3.856-0.126,6.912-2.34,6.826-4.946
				c-0.085-2.605-3.279-4.613-7.134-4.487C158.104,270.701,155.046,272.914,155.133,275.519z"/>
			<path style="fill:#FAC4C6;" d="M155.455,275.508c0.082,2.488,3.131,4.407,6.812,4.286c3.682-0.12,6.599-2.233,6.517-4.721
				c-0.08-2.487-3.131-4.404-6.81-4.284C158.291,270.909,155.373,273.022,155.455,275.508z"/>
			<path style="fill:#F9BCBF;" d="M155.778,275.498c0.077,2.37,2.982,4.197,6.488,4.083c3.506-0.115,6.285-2.127,6.207-4.497
				c-0.077-2.369-2.982-4.194-6.486-4.08C158.479,271.117,155.699,273.129,155.778,275.498z"/>
			<path style="fill:#F8B4B8;" d="M156.102,275.487c0.072,2.251,2.834,3.987,6.165,3.878c3.33-0.109,5.972-2.02,5.897-4.272
				c-0.074-2.251-2.834-3.985-6.163-3.876C158.668,271.325,156.025,273.236,156.102,275.487z"/>
			<path style="fill:#F8ADB1;" d="M156.424,275.477c0.069,2.134,2.685,3.778,5.842,3.675c3.155-0.103,5.658-1.914,5.589-4.048
				c-0.07-2.133-2.687-3.776-5.841-3.673C158.855,271.533,156.352,273.344,156.424,275.477z"/>
			<path style="fill:#F7A5AB;" d="M156.747,275.466c0.066,2.016,2.535,3.569,5.519,3.471c2.979-0.097,5.345-1.808,5.279-3.823
				c-0.066-2.015-2.539-3.567-5.517-3.47C159.044,271.741,156.68,273.451,156.747,275.466z"/>
			<path style="fill:#F69DA5;" d="M157.07,275.456c0.062,1.897,2.387,3.359,5.195,3.267c2.803-0.092,5.031-1.701,4.969-3.599
				c-0.063-1.897-2.391-3.357-5.193-3.266C159.232,271.949,157.006,273.559,157.07,275.456z"/>
			<path style="fill:#F5969F;" d="M157.393,275.445c0.059,1.78,2.238,3.15,4.872,3.064c2.628-0.086,4.718-1.594,4.661-3.375
				c-0.061-1.778-2.243-3.148-4.87-3.063C159.42,272.157,157.332,273.667,157.393,275.445z"/>
			<path style="fill:#F58E99;" d="M157.716,275.435c0.055,1.661,2.088,2.94,4.548,2.859c2.453-0.08,4.405-1.488,4.352-3.149
				c-0.056-1.661-2.094-2.94-4.547-2.86C159.608,272.365,157.659,273.774,157.716,275.435z"/>
			<path style="fill:#F48793;" d="M158.039,275.424c0.05,1.544,1.939,2.73,4.225,2.656c2.277-0.075,4.091-1.382,4.042-2.926
				c-0.053-1.543-1.947-2.73-4.224-2.656C159.796,272.573,157.986,273.881,158.039,275.424z"/>
			<path style="fill:#F37F8E;" d="M158.361,275.414c0.047,1.425,1.791,2.521,3.902,2.452c2.102-0.069,3.777-1.275,3.732-2.701
				c-0.049-1.424-1.799-2.521-3.9-2.453C159.984,272.781,158.313,273.989,158.361,275.414z"/>
		</g>
		<g style="opacity:0.2;">
			<path style="fill:#FFFFFF;" d="M184.758,274.696c0.109,3.314,4.174,5.873,9.074,5.713c4.91-0.16,8.793-2.979,8.686-6.293
				c-0.111-3.314-4.168-5.869-9.076-5.708C188.539,268.569,184.648,271.383,184.758,274.696z"/>
			<path style="fill:#FEF4F3;" d="M185.081,274.686c0.105,3.196,4.024,5.663,8.751,5.509c4.734-0.154,8.479-2.872,8.376-6.068
				c-0.107-3.196-4.02-5.66-8.753-5.505C188.727,268.777,184.975,271.49,185.081,274.686z"/>
			<path style="fill:#FEECEB;" d="M185.403,274.675c0.102,3.078,3.876,5.454,8.429,5.305c4.559-0.148,8.166-2.766,8.066-5.844
				c-0.105-3.077-3.873-5.45-8.43-5.301C188.915,268.984,185.303,271.598,185.403,274.675z"/>
			<path style="fill:#FDE4E3;" d="M185.725,274.665c0.099,2.96,3.728,5.244,8.105,5.101c4.385-0.143,7.853-2.659,7.757-5.619
				c-0.1-2.959-3.724-5.242-8.106-5.098C189.102,269.193,185.63,271.706,185.725,274.665z"/>
			<path style="fill:#FCDCDC;" d="M186.049,274.654c0.094,2.842,3.578,5.035,7.782,4.897c4.208-0.137,7.539-2.553,7.446-5.395
				c-0.096-2.841-3.574-5.032-7.782-4.895C189.291,269.4,185.956,271.813,186.049,274.654z"/>
			<path style="fill:#FCD4D4;" d="M186.372,274.644c0.09,2.724,3.43,4.826,7.459,4.694c4.032-0.131,7.226-2.447,7.137-5.17
				c-0.092-2.723-3.427-4.822-7.459-4.69C189.479,269.608,186.283,271.92,186.372,274.644z"/>
			<path style="fill:#FBCCCD;" d="M186.695,274.633c0.086,2.606,3.279,4.616,7.135,4.49c3.858-0.126,6.912-2.34,6.828-4.946
				c-0.088-2.605-3.279-4.614-7.137-4.488C189.667,269.816,186.609,272.028,186.695,274.633z"/>
			<path style="fill:#FAC4C6;" d="M187.018,274.623c0.082,2.488,3.131,4.407,6.813,4.286c3.683-0.12,6.599-2.233,6.518-4.721
				c-0.084-2.487-3.131-4.405-6.813-4.284C189.855,270.024,186.938,272.136,187.018,274.623z"/>
			<path style="fill:#F9BCBF;" d="M187.341,274.612c0.078,2.37,2.982,4.197,6.489,4.082c3.507-0.114,6.285-2.127,6.208-4.497
				c-0.08-2.368-2.982-4.195-6.489-4.08C190.043,270.232,187.264,272.243,187.341,274.612z"/>
			<path style="fill:#F8B4B8;" d="M187.664,274.602c0.074,2.252,2.834,3.987,6.166,3.878c3.331-0.109,5.972-2.021,5.898-4.273
				c-0.076-2.25-2.834-3.986-6.166-3.876C190.23,270.44,187.59,272.351,187.664,274.602z"/>
			<path style="fill:#F8ADB1;" d="M187.986,274.591c0.07,2.134,2.685,3.777,5.844,3.674c3.155-0.103,5.658-1.914,5.588-4.048
				c-0.072-2.132-2.685-3.777-5.842-3.673C190.419,270.648,187.918,272.458,187.986,274.591z"/>
			<path style="fill:#F7A5AB;" d="M188.309,274.58c0.066,2.017,2.535,3.569,5.52,3.471c2.981-0.097,5.345-1.808,5.278-3.824
				c-0.067-2.014-2.537-3.567-5.519-3.47C190.607,270.856,188.244,272.566,188.309,274.58z"/>
			<path style="fill:#F69DA5;" d="M188.633,274.57c0.063,1.898,2.387,3.358,5.196,3.267c2.806-0.091,5.031-1.701,4.97-3.599
				c-0.064-1.897-2.391-3.359-5.196-3.267C190.795,271.064,188.571,272.673,188.633,274.57z"/>
			<path style="fill:#F5969F;" d="M188.955,274.56c0.059,1.78,2.238,3.149,4.874,3.063c2.63-0.086,4.718-1.594,4.659-3.375
				c-0.061-1.778-2.241-3.149-4.872-3.063C190.982,271.272,188.898,272.781,188.955,274.56z"/>
			<path style="fill:#F58E99;" d="M189.278,274.549c0.055,1.663,2.088,2.94,4.55,2.859c2.455-0.08,4.404-1.488,4.35-3.15
				c-0.056-1.66-2.093-2.94-4.549-2.86C191.171,271.48,189.225,272.889,189.278,274.549z"/>
			<path style="fill:#F48793;" d="M189.602,274.538c0.051,1.544,1.939,2.731,4.227,2.656c2.279-0.075,4.091-1.382,4.04-2.926
				c-0.053-1.542-1.945-2.73-4.226-2.656C191.359,271.688,189.553,272.996,189.602,274.538z"/>
			<path style="fill:#F37F8E;" d="M189.924,274.528c0.047,1.426,1.791,2.521,3.904,2.452c2.104-0.069,3.777-1.275,3.73-2.701
				c-0.049-1.424-1.797-2.521-3.902-2.452C191.547,271.896,189.879,273.103,189.924,274.528z"/>
		</g>
		<g>
			<path style="fill:#FFD040;" d="M141.977,280.801c0.043,1.253,1.09,2.237,2.344,2.195c1.254-0.04,2.238-1.09,2.197-2.344
				c-0.041-1.254-1.09-2.237-2.344-2.196C142.918,278.497,141.936,279.546,141.977,280.801z"/>
			<path style="fill:#FFD040;" d="M141.977,280.801c0.043,1.253,1.09,2.237,2.344,2.195c1.254-0.04,2.238-1.09,2.197-2.344
				c-0.041-1.254-1.09-2.237-2.344-2.196C142.918,278.497,141.936,279.546,141.977,280.801z"/>
			<path style="fill:#FFD040;" d="M142.172,279.824c-0.049,0.163-0.082,0.332-0.074,0.51c0.029,0.894,0.775,1.593,1.668,1.564
				c0.895-0.028,1.594-0.775,1.564-1.669c-0.029-0.893-0.775-1.593-1.668-1.563c-0.223,0.007-0.428,0.059-0.619,0.144
				c0.328-0.207,0.713-0.341,1.131-0.354c1.254-0.041,2.303,0.942,2.344,2.196c0.041,1.253-0.943,2.304-2.197,2.344
				c-1.254,0.042-2.301-0.941-2.344-2.195C141.967,280.452,142.041,280.123,142.172,279.824z"/>
			<path style="fill:#FFFFFF;" d="M142.492,280.087c0.018,0.563,0.486,1.002,1.051,0.985c0.561-0.019,1-0.489,0.982-1.052
				c-0.02-0.561-0.488-1.001-1.051-0.983C142.914,279.055,142.475,279.527,142.492,280.087z"/>
			<path style="fill:#FFFFFF;" d="M142.951,279.899c0.006,0.212,0.184,0.375,0.393,0.369c0.209-0.007,0.377-0.183,0.369-0.393
				c-0.006-0.21-0.186-0.376-0.395-0.369C143.107,279.513,142.943,279.689,142.951,279.899z"/>
		</g>
	</g>
	<path style="fill:#E6E7E8;" d="M143.396,410.186l6.719-29.742l-12.682-47.65c0.65-12.355,10.42-14.71,10.42-14.71l16.875-7.004
		l9.361,6.434l6.049-5.497l13.406,7.426c0,0,7.08,4.65,5.994,18.261c0,0-1.35,1.481,2.797,9.48c0,0,3.92,17.795-13.691,24.373
		c0,0-3.227,18.193,0.332,38.631H143.396z"/>
	<path style="fill:#00B9C5;" d="M143.396,410.186h45.649c-1.48-21.681,1.146-37.909,1.146-37.909
		c17.609-6.579,13.691-24.373,13.691-24.373c-4.146-7.999-2.799-9.481-2.799-9.481c1.086-13.61-5.996-18.26-5.996-18.26
		l-8.348-4.491c0,0,8.209,36.743-8.051,44.128c-26.984-10.667-16.42-47.853-16.42-47.853l-14.416,6.135c0,0-10.09,2.274-10.42,14.71
		l12.285,47.826l-6.406,29.566"/>
	<path style="fill:#181421;" d="M193.057,425.2c0.957-3.787,1.057-8.521-0.15-14.449h-49.832c0,0-2.625,7.189-1.01,14.449H193.057z"
		/>
	<polygon style="fill:#FFFFFF;" points="186.74,315.673 179.441,309.965 174.09,317.513 191.771,327.724 	"/>
	<polygon style="fill:#FFFFFF;" points="161.766,312.163 167.037,308.81 174.09,317.513 159.184,328.734 	"/>
	<g>
		<path style="fill:#1B232D;" d="M177.133,321.006c-0.596,1.745-1.268,3.452-1.965,5.147l0.033-0.352
			c0.832,2.386,1.578,4.795,2.302,7.21c0.37,1.205,0.692,2.424,1.04,3.635c0.354,1.21,0.654,2.435,0.979,3.652
			c0.33,1.216,0.619,2.443,0.916,3.669c0.307,1.223,0.566,2.458,0.844,3.689c0.525,2.469,1.022,4.946,1.379,7.461
			c-0.967-2.349-1.794-4.736-2.594-7.131c-0.384-1.202-0.786-2.398-1.141-3.607c-0.365-1.207-0.738-2.412-1.07-3.627
			c-0.338-1.214-0.699-2.422-1.008-3.645c-0.313-1.221-0.652-2.434-0.945-3.661c-0.6-2.449-1.178-4.904-1.67-7.382l-0.043-0.219
			l0.076-0.134C175.18,324.123,176.119,322.545,177.133,321.006z"/>
	</g>
	<g>
		<g>
			<path style="fill:#1B232D;" d="M171.334,319.441c1.334,2.056,2.594,4.151,3.828,6.259l0.055,0.095l0.001,0.168
				c0.007,2.703-0.075,5.399-0.179,8.094c-0.045,1.348-0.138,2.693-0.204,4.04c-0.061,1.347-0.177,2.69-0.268,4.036
				c-0.086,1.346-0.213,2.689-0.332,4.032c-0.109,1.344-0.268,2.685-0.406,4.027c-0.311,2.682-0.65,5.363-1.135,8.034
				c-0.147-2.711-0.148-5.413-0.123-8.113c0.029-1.349,0.04-2.699,0.1-4.046c0.049-1.348,0.091-2.696,0.174-4.042
				c0.077-1.346,0.131-2.693,0.237-4.038c0.103-1.345,0.178-2.691,0.302-4.034c0.233-2.688,0.488-5.373,0.833-8.053l0.056,0.263
				C173.251,323.945,172.256,321.713,171.334,319.441z"/>
		</g>
	</g>
	<polygon style="fill:#181421;" points="237.23,425.2 199.162,410.186 185.564,425.2 	"/>
	<path style="fill:#23202D;" d="M257.76,425.2l-7.68-21.715l-70.158,6.702h-36.609c0,0-2.814,7.237-1.51,15.014H257.76z"/>
	<g>
		<polygon style="fill:#3E0D00;" points="393.707,425.2 393.707,413.174 364.264,394.794 364.264,425.2 		"/>
		<polygon style="fill:#3E0D00;" points="60.933,425.2 60.933,413.174 31.494,394.775 31.494,425.2 		"/>
		<rect x="60.933" y="413.174" style="fill:#582100;" width="332.773" height="11.773"/>
		<polygon style="fill:#71300D;" points="364.283,394.794 393.707,413.174 60.933,413.174 31.508,394.794 		"/>
		<rect x="60.933" y="413.174" style="fill:#572000;" width="4.442" height="12.026"/>
		<rect x="389.266" y="413.174" style="fill:#572000;" width="4.441" height="12.026"/>
	</g>
	<g>
		<g>
			<path style="fill:#07717A;" d="M151.76,335.725c0,0-0.144,0.907-0.395,2.495c-0.09,0.797-0.185,1.764-0.278,2.87
				c-0.015,1.115-0.114,2.366-0.047,3.733c0.003,1.366,0.153,2.841,0.341,4.39c0.131,0.77,0.238,1.565,0.396,2.368
				c0.18,0.798,0.363,1.614,0.551,2.443c0.24,0.815,0.484,1.643,0.732,2.482c0.311,0.817,0.6,1.654,0.934,2.479
				c0.379,0.806,0.721,1.637,1.135,2.437c0.446,0.782,0.84,1.6,1.332,2.357c0.941,1.541,1.984,3.023,3.145,4.37
				c1.153,1.354,2.406,2.587,3.709,3.669c0.669,0.508,1.296,1.102,1.964,1.514c0.689,0.46,1.362,0.91,2.018,1.349
				c0.328,0.218,0.652,0.434,0.971,0.646c0.335,0.175,0.664,0.348,0.988,0.518c0.648,0.341,1.275,0.671,1.877,0.988
				c0.592,0.34,1.199,0.586,1.775,0.824c0.574,0.246,1.119,0.479,1.631,0.699c1.014,0.47,1.941,0.764,2.702,1.017
				c1.519,0.526,2.386,0.826,2.386,0.826s-0.89-0.229-2.447-0.63c-0.778-0.204-1.729-0.44-2.777-0.846
				c-0.529-0.188-1.094-0.387-1.688-0.598c-0.598-0.204-1.219-0.439-1.839-0.758c-0.629-0.3-1.284-0.613-1.962-0.936
				c-0.34-0.163-0.686-0.328-1.035-0.496c-0.328-0.2-0.66-0.402-0.996-0.608c-0.673-0.412-1.363-0.835-2.07-1.268
				c-0.185-0.116-0.336-0.199-0.551-0.344l-0.504-0.394c-0.338-0.264-0.68-0.53-1.023-0.798c-1.355-1.097-2.663-2.351-3.871-3.731
				c-1.215-1.374-2.313-2.886-3.302-4.466c-0.497-0.788-0.893-1.635-1.341-2.446c-0.414-0.829-0.758-1.689-1.135-2.522
				c-0.332-0.852-0.619-1.715-0.924-2.558c-0.244-0.863-0.483-1.715-0.719-2.553c-0.188-0.85-0.357-1.689-0.513-2.512
				c-0.129-0.827-0.208-1.643-0.31-2.433c-0.129-1.586-0.223-3.09-0.172-4.477c-0.026-1.388,0.159-2.652,0.25-3.771
				c0.166-1.114,0.324-2.083,0.466-2.874C151.543,336.618,151.76,335.725,151.76,335.725z"/>
		</g>
		<g>
			<g>
				<g>
					<path style="fill:#E1956A;" d="M215.863,385.798l5.51-0.175c0,0,6.775,2.643,7.736,3.652c0.963,1.01-0.469,1.887-0.469,1.887
						l-1.367-0.681l-4.646-1.998l-3.867,0.115C218.76,388.599,215.486,388.283,215.863,385.798z"/>
				</g>
				<g>
					<path style="fill:#F9A374;" d="M216.939,395.092c-6.924-2.743-8.406,0.075-8.406,0.075l0.635-8.473
						c2.033-1.639,6.994-0.905,6.994-0.905l7.361,1.504c0,0,3.949,3.478,4.717,4.644c0.766,1.168-0.805,1.772-0.805,1.772
						l-1.221-0.917l-3.02-2.899l-4.27-0.22l4.313,1.136l2.828,3.407c1.479,1.767-0.539,2.372-0.539,2.372l-3.5-3.935l-6.248-0.05
						c1.959,0.721,5.229,1.991,5.229,1.991s0.354,1.56-1.219,1.318L216.939,395.092z"/>
				</g>
			</g>
			<g>
				<path style="fill:#00B9C5;" d="M211.063,398.715l0.416-14.493c-26.771-0.769-44.857-6.407-53.754-16.753
					c-8.615-10.019-7.02-23.093-5.965-31.744c0.361-2.958,0.648-5.295,0.539-7.373l-14.48,0.751c0.045,0.82-0.219,2.969-0.449,4.865
					c-1.197,9.814-3.43,28.081,9.363,42.956C158.564,390.682,179.607,397.81,211.063,398.715z"/>
			</g>
		</g>
	</g>
</g>
<g>
	<rect x="244.334" y="379.738" style="fill:#939598;" width="19.668" height="6.034"/>
	<rect x="330.177" y="379.738" style="fill:#939598;" width="19.667" height="6.034"/>
	<path style="fill:#BCBEC0;" d="M220.484,401.545v0.521c0,3.44,2.563,6.228,5.723,6.228h139.611c3.162,0,5.726-2.789,5.726-6.228
		v-0.521H220.484z"/>
	<polygon style="fill:#A7A9AC;" points="236.311,381.475 359.384,381.475 371.544,401.545 220.484,401.545 	"/>
	<polygon style="fill:#D1D3D4;" points="239.113,384.665 356.027,384.665 361.522,393.901 231.831,393.901 	"/>
	<polygon style="fill:#D1D3D4;" points="285.378,394.93 304.436,394.93 306.447,399.874 282.713,399.874 	"/>
	<path style="fill:#BCBEC0;" d="M361.299,376.818c0,2.739-0.958,2.92-3.603,2.92h-119.44c-2.646,0-3.395-0.181-3.395-2.92v-73.789
		c0-2.74,0.748-3.284,3.395-3.284h119.44c2.645,0,3.603,0.544,3.603,3.284V376.818z"/>
	<rect x="238.037" y="307.389" style="fill:#58595B;" width="120.086" height="67.639"/>
	<rect x="240.013" y="308.773" style="fill:#FEBE23;" width="116.137" height="64.87"/>
	<path style="fill:#FFDE17;" d="M307.89,343.217c-38.205,22.619-67.954,30.313-67.954,30.313l0.155-64.87l116.136,0.226
		C356.227,308.886,342.559,322.692,307.89,343.217z"/>
	<path style="fill:#939598;" d="M300.824,303.51c0,1.516-1.228,2.744-2.744,2.744c-1.516,0-2.744-1.228-2.744-2.744
		c0-1.516,1.228-2.744,2.744-2.744C299.597,300.766,300.824,301.995,300.824,303.51z"/>
	<path style="fill:#249DC3;" d="M300.26,303.51c0,1.204-0.976,2.179-2.18,2.179c-1.203,0-2.178-0.975-2.178-2.179
		c0-1.203,0.975-2.179,2.178-2.179C299.284,301.332,300.26,302.307,300.26,303.51z"/>
	<path style="fill:#FFFFFF;" d="M296.314,303.509c0-1.018,0.846-1.842,1.89-1.842C299.248,301.667,296.314,304.527,296.314,303.509z
		"/>
</g>
<g>
	<rect x="256.195" y="308.294" style="fill:#BD6B3C;" width="84.467" height="51.328"/>
	<path style="fill:#F9A45A;" d="M290.441,280.441c-7.018,5.71-34.246,27.853-34.246,27.853h84.467c0,0-28.813-22.507-35.445-27.853
		C298.584,275.094,297.461,274.733,290.441,280.441z"/>
	<g>
		<polygon style="fill:#E4E5E6;" points="329.619,349.395 268.453,349.395 268.453,269.375 315.746,269.375 329.619,285.785 		"/>
		<polygon style="fill:#56B9D6;" points="329.619,285.785 315.746,285.785 315.746,269.375 		"/>
	</g>
	<polygon style="fill:#E7944E;" points="340.662,359.622 256.195,359.622 256.195,308.294 298.429,338 340.662,308.294 	"/>
	<path style="fill:#D7C2BF;" d="M306.943,332.011l-4.92,3.868l-10.129-2.477l-2.162-1.392c-7.97,6.56-33.537,27.611-33.537,27.611
		h84.467C340.662,359.622,314.706,338.3,306.943,332.011z"/>
	<path style="fill:#F9A45A;" d="M290.441,334.449c-7.018,5.159-34.246,25.173-34.246,25.173h84.467c0,0-28.813-20.342-35.445-25.173
		C298.584,329.617,297.461,329.29,290.441,334.449z"/>
</g>
<g>
	<polygon style="fill:#FFFFFF;" points="332.54,326.546 336.821,324.085 346.807,336.231 351.085,333.768 357.788,332.91 
		361.336,333.867 363.478,332.637 364.775,334.89 366.914,333.658 376.328,350.025 374.134,351.289 378.928,359.625 
		376.676,360.922 380.238,367.117 363.624,376.673 358.484,372.686 355.956,368.294 353.817,369.526 351.29,365.133 349.15,366.364 
		346.623,361.971 344.48,363.202 341.047,362.18 336.996,356.308 342.359,353.779 344.499,352.549 	"/>
	<g>
		<polygon points="351.602,344.565 346.807,336.231 351.085,333.768 349.79,331.515 345.509,333.978 339.074,322.787 
			336.821,324.085 349.35,345.861 		"/>
		<polygon points="358.136,340.807 354.635,334.726 357.788,332.91 356.492,330.658 353.338,332.471 352.211,333.12 
			351.085,333.768 355.881,342.104 		"/>
		<rect x="331.563" y="322.889" transform="matrix(0.8669 -0.4984 0.4984 0.8669 -117.1364 209.6333)" width="4.938" height="2.6"/>
		<polygon points="364.836,339.95 361.336,333.867 363.478,332.637 362.184,330.382 360.039,331.613 357.9,332.845 357.788,332.91 
			362.582,341.246 		"/>
		<polygon points="380.238,367.117 363.624,376.673 360.623,371.456 358.484,372.686 361.486,377.906 362.718,380.046 
			364.857,378.815 381.47,369.257 383.723,367.961 382.491,365.822 378.928,359.625 376.676,360.922 		"/>
		<polygon points="342.359,353.779 341.063,351.527 334.193,355.478 335.1,357.056 335.489,357.731 338.793,363.476 341.047,362.18 
			337.74,356.436 		"/>
		<polygon points="366.914,333.658 376.328,350.025 374.134,351.289 378.928,359.625 381.182,358.331 376.387,349.995 
			378.582,348.732 369.168,332.362 		"/>
		
			<rect x="363.962" y="331.848" transform="matrix(0.8667 -0.4989 0.4989 0.8667 -117.5118 226.6182)" width="2.468" height="2.599"/>
		<polygon points="345.795,354.802 347.652,358.031 349.906,356.733 332.54,326.546 330.287,327.842 344.499,352.549 
			342.359,353.779 343.656,356.031 		"/>
		
			<rect x="341.53" y="361.391" transform="matrix(0.8668 -0.4986 0.4986 0.8668 -135.1876 219.1845)" width="2.467" height="2.599"/>
		
			<rect x="345.581" y="362.249" transform="matrix(0.8666 -0.4991 0.4991 0.8666 -135.7745 221.7641)" width="2.47" height="5.068"/>
		<rect x="350.25" y="365.411" transform="matrix(0.8667 -0.4989 0.4989 0.8667 -136.6984 224.41)" width="2.468" height="5.067"/>
		
			<rect x="354.916" y="368.572" transform="matrix(0.8668 -0.4987 0.4987 0.8668 -137.6215 227.0507)" width="2.469" height="5.067"/>
	</g>
</g>
</svg>
