<?xml version="1.0" encoding="utf-8"?><svg version="1.1" id="Layer_1" xmlns="http://www.w3.org/2000/svg" xmlns:xlink="http://www.w3.org/1999/xlink" x="0px" y="0px" viewBox="0 0 122.88 116.68" style="enable-background:new 0 0 122.88 116.68" xml:space="preserve"><g><path d="M69.53,91.55l13.23,13.23c3.2,0.09,5.77,2.72,5.77,5.95c0,3.29-2.66,5.95-5.95,5.95c-3.29,0-5.95-2.67-5.95-5.95 c0-0.36,0.03-0.72,0.09-1.07L65.21,98.16v8.46l-8.24,0v-8.23l-11.69,11.7c0.02,0.21,0.03,0.43,0.03,0.65c0,0,0,0,0,0 c0,3.29-2.66,5.95-5.96,5.95c-3.29,0-5.95-2.67-5.95-5.95c0-3.29,2.67-5.95,5.95-5.95c0.1,0,0.2,0,0.29,0.01l13.23-13.23L0,91.55 V15.71c0-0.05,0-0.09,0-0.14V7.52c0-0.87,0.72-1.57,1.61-1.57h55.36V0h8.24v5.95h56.06c0.89,0,1.61,0.71,1.61,1.57v8.05 c0,0.03,0,0.05,0,0.08v75.89H69.53L69.53,91.55z M26.89,62.71l23.26-22.74c5.76,5.76,11.46,11.46,17.28,17.21l15.41-15.6 l-7.15-7.15l20.12-0.18v20.29l-6.87-6.87c-7.16,7.25-14.29,14.48-21.47,21.67L50.03,52.12L32.99,68.81L26.89,62.71L26.89,62.71 L26.89,62.71z M113.79,21.73H8.92v60.64h104.87V21.73L113.79,21.73z"/></g></svg>