<?xml version="1.0" encoding="utf-8"?><svg version="1.1" id="Layer_1" xmlns="http://www.w3.org/2000/svg" xmlns:xlink="http://www.w3.org/1999/xlink" x="0px" y="0px" width="122.88px" height="92.126px" viewBox="0 0 122.88 92.126" enable-background="new 0 0 122.88 92.126" xml:space="preserve"><g><path fill-rule="evenodd" clip-rule="evenodd" d="M6.022,0h52.021c3.878,0,7.048,3.17,7.048,7.048v5.254h52.149 c3.102,0,5.64,2.535,5.64,5.637v68.549c0,3.101-2.538,5.638-5.64,5.638h-12.219V81.464H89.949v10.662H34.681V81.464H19.608v10.662 H6.662c-3.1,0-6.662-2.537-6.662-5.638C0,58.626,0,33.214,0,6.023C0,2.71,2.709,0,6.022,0L6.022,0z M70.785,27.972h43.325v6.39 H70.785V27.972L70.785,27.972z M70.785,44.648h43.325v6.39H70.785V44.648L70.785,44.648z M70.785,61.324h43.325v6.388H70.785 V61.324L70.785,61.324z M9.086,67.712v-8.194c4.385-1.95,17.81-5.57,18.443-10.938c0.145-1.211-2.715-5.923-3.37-8.139 c-0.823-1.313-1.268-1.782-1.245-3.401c0.011-0.912,0.025-1.81,0.156-2.687c0.166-1.121,0.134-1.154,0.719-2.057 c0.61-0.938,0.349-4.358,0.349-5.65c0-12.851,22.518-12.855,22.518,0c0,1.625-0.374,4.61,0.508,5.889 c0.431,0.621,0.354,0.694,0.496,1.456c0.191,0.993,0.204,2.011,0.22,3.05c0.021,1.619-0.422,2.089-1.245,3.401 c-0.799,2.327-3.835,6.726-3.576,8.046c0.966,4.902,13.42,8.195,17.341,9.939v9.285H9.086L9.086,67.712z M99.875,92.126h-4.656 v-5.025h4.656V92.126L99.875,92.126z M29.534,92.126h-4.658v-5.025h4.658V92.126L29.534,92.126z"/></g></svg>